<svg xmlns="http://www.w3.org/2000/svg" viewBox="0 0 2102.49 2003.01"><defs><style>.cls-1{opacity:0.1;}.cls-2{fill:#fff;}.cls-2,.cls-3,.cls-4{stroke:#5b21b6;stroke-miterlimit:10;stroke-width:4px;}.cls-3,.cls-4{fill:none;}.cls-3{stroke-linecap:round;}</style></defs><title>footer</title><g id="Object"><g class="cls-1"><path class="cls-2" d="M274.26,372.59a167.31,167.31,0,0,0,88.66-148c0-92.5-75.26-167.76-167.79-167.76A168.27,168.27,0,0,0,53,135.37,167.31,167.31,0,0,0-30.73,113a168.36,168.36,0,0,0-73.64,17A168.17,168.17,0,0,0-246.94,50.72a167.1,167.1,0,0,0-127.7,59,168.74,168.74,0,0,0-32.6-3.17C-499.75,106.5-575,181.75-575,274.25A167.78,167.78,0,0,0-538.46,378.8,167.76,167.76,0,0,0-575,483.34c0,92.51,75.28,167.75,167.79,167.75a166.44,166.44,0,0,0,116.17-46.72A166.24,166.24,0,0,0-225,617.91a167.44,167.44,0,0,0,84.32-22.71,166.79,166.79,0,0,0,91.27,27,166.22,166.22,0,0,0,93.49-28.44,167.41,167.41,0,0,0,151,94.57c92.53,0,167.79-75.25,167.79-167.74A167.32,167.32,0,0,0,274.26,372.59ZM195.13,673.33a152.52,152.52,0,0,1-141-93.88l-3.73-8.91-7.7,5.83a151.54,151.54,0,0,1-92.05,30.82,152,152,0,0,1-86.79-27l-4.05-2.8-4.18,2.6a152.37,152.37,0,0,1-80.57,23,151.51,151.51,0,0,1-64.55-14.27l-4.82-2.25-3.71,3.8a151.67,151.67,0,0,1-109.19,45.9c-84.25,0-152.8-68.53-152.8-152.76a152.72,152.72,0,0,1,37-99.66l4.22-4.88-4.22-4.9a152.67,152.67,0,0,1-37-99.65c0-84.24,68.55-152.76,152.8-152.76a153.43,153.43,0,0,1,33.82,3.76l4.56,1,2.94-3.64a152.2,152.2,0,0,1,119-56.93,153.13,153.13,0,0,1,133.19,77.86l3.63,6.43,6.48-3.52A152.91,152.91,0,0,1-30.73,128a152.29,152.29,0,0,1,82.28,24l6.66,4.27,3.91-6.88a153.23,153.23,0,0,1,133-77.54c84.25,0,152.8,68.53,152.8,152.77a152.46,152.46,0,0,1-94,141.05l-16.59,6.91,16.59,6.92a152.44,152.44,0,0,1,94,141.06C347.93,604.79,279.38,673.33,195.13,673.33Z" transform="translate(1134.16 590.54)"/><path class="cls-3" d="M-523.5-538.33l-16.11,0h-32.26l-23.77,0h-4.25l-23.76,0h-4.24l-23.77,0h-4.25l-23.77,0h-4.25l-23.77,0h-4.25l-23.75,0h-4.25l-23.77,0h-13.42a2.83,2.83,0,0,0-2.35,4.4l77.76,117a2.83,2.83,0,0,0,3.92.8l175.88-116.81A2.83,2.83,0,0,0-523.5-538.33Zm-86.27,31.65-80.62,53.54a2.82,2.82,0,0,1-3.91-.79l-35.65-53.63a2.84,2.84,0,0,1,2.36-4.4l116.25.1A2.83,2.83,0,0,1-609.77-506.68Z" transform="translate(1134.16 590.54)"/><path class="cls-2" d="M-763.72-538.54v8.17a2.12,2.12,0,0,1-2.13,2.12,2.12,2.12,0,0,1-2.12-2.12v-8.17Z" transform="translate(1134.16 590.54)"/><path class="cls-2" d="M-679.68-538.46v8.09a2.12,2.12,0,0,1-2.12,2.12,2.11,2.11,0,0,1-2.12-2.12v-8.1Z" transform="translate(1134.16 590.54)"/><path class="cls-2" d="M-707.7-538.49v8.12a2.11,2.11,0,0,1-2.12,2.12,2.12,2.12,0,0,1-2.12-2.12v-8.12Z" transform="translate(1134.16 590.54)"/><path class="cls-2" d="M-735.7-538.52v8.15a2.13,2.13,0,0,1-2.13,2.12,2.11,2.11,0,0,1-2.12-2.12v-8.15Z" transform="translate(1134.16 590.54)"/><path class="cls-2" d="M-651.67-538.44v8.07a2.11,2.11,0,0,1-2.12,2.12,2.13,2.13,0,0,1-2.13-2.12v-8.07Z" transform="translate(1134.16 590.54)"/><path class="cls-2" d="M-623.65-538.42v8a2.12,2.12,0,0,1-2.12,2.12,2.12,2.12,0,0,1-2.13-2.12v-8Z" transform="translate(1134.16 590.54)"/><path class="cls-2" d="M-595.64-538.4v8a2.11,2.11,0,0,1-2.12,2.12,2.13,2.13,0,0,1-2.13-2.12v-8Z" transform="translate(1134.16 590.54)"/><path class="cls-2" d="M-567.62-538.37v8a2.13,2.13,0,0,1-2.12,2.12,2.12,2.12,0,0,1-2.13-2.12v-8Z" transform="translate(1134.16 590.54)"/><path class="cls-2" d="M-539.61-538.35v8a2.12,2.12,0,0,1-2.13,2.12,2.13,2.13,0,0,1-2.12-2.12v-8Z" transform="translate(1134.16 590.54)"/><path class="cls-4" d="M460.4,846.57l-17.21,0H408.75l-25.38,0h-4.54l-25.36,0h-4.54l-25.38,0H319l-25.37,0H289.1l-25.37,0h-4.54l-25.37,0h-4.54l-25.38,0H189.58a3,3,0,0,0-2.52,4.7L270.1,976a3,3,0,0,0,4.18.85L462.07,852.1A3,3,0,0,0,460.4,846.57Zm-92.12,33.8-86.07,57.15a3,3,0,0,1-4.18-.83L240,879.43a3,3,0,0,1,2.52-4.7l124.12.1A3,3,0,0,1,368.28,880.37Z" transform="translate(1134.16 590.54)"/><path class="cls-2" d="M203.9,846.35v8.72a2.27,2.27,0,1,1-4.53,0v-8.72Z" transform="translate(1134.16 590.54)"/><path class="cls-2" d="M293.64,846.43v8.64a2.27,2.27,0,1,1-4.53,0v-8.65Z" transform="translate(1134.16 590.54)"/><path class="cls-2" d="M263.73,846.4v8.67a2.27,2.27,0,0,1-4.54,0V846.4Z" transform="translate(1134.16 590.54)"/><path class="cls-2" d="M233.82,846.37v8.7a2.27,2.27,0,1,1-4.54,0v-8.7Z" transform="translate(1134.16 590.54)"/><path class="cls-2" d="M323.55,846.45v8.62a2.27,2.27,0,0,1-4.54,0v-8.62Z" transform="translate(1134.16 590.54)"/><path class="cls-2" d="M353.46,846.47v8.6a2.27,2.27,0,1,1-4.53,0v-8.6Z" transform="translate(1134.16 590.54)"/><path class="cls-2" d="M383.37,846.5v8.57a2.27,2.27,0,1,1-4.54,0V846.5Z" transform="translate(1134.16 590.54)"/><path class="cls-2" d="M413.29,846.53v8.54a2.27,2.27,0,0,1-4.54,0v-8.55Z" transform="translate(1134.16 590.54)"/><path class="cls-2" d="M443.19,846.55v8.52a2.27,2.27,0,1,1-4.53,0v-8.53Z" transform="translate(1134.16 590.54)"/><path class="cls-2" d="M278.61-89.87,135.16-178.48a2.67,2.67,0,0,0-3.47.59L85.08-120.53a2.66,2.66,0,0,0-.44,2.63,2.65,2.65,0,0,0,2.07,1.68l20.34,3.35,5,.82,144.78,23.8h0l12.91,2.13,6.45,1.06h0l.55.09a3.11,3.11,0,0,0,.43,0,2.26,2.26,0,0,0,.69-.1,1.7,1.7,0,0,0,.32-.1,2.64,2.64,0,0,0,1.49-1.53,1.31,1.31,0,0,0,.09-.28,2.36,2.36,0,0,0,.08-.65A2.68,2.68,0,0,0,278.61-89.87ZM111-117.29l-.22,0-19.25-3.17,42.8-52.66L266-91.81Z" transform="translate(1134.16 590.54)"/><path class="cls-2" d="M279.72-87.75a2.63,2.63,0,0,0-1.53-1.75,2.61,2.61,0,0,0-1.24-.22l-20.09,1.47h0L99.51-76.67l-5.45.4-40.21,3a2.67,2.67,0,0,0-2,1.1A2.64,2.64,0,0,0,51.46-70l20,80.48a2.66,2.66,0,0,0,2.6,2,2.61,2.61,0,0,0,1.15-.26l4.35-2.07L84.22,8l48.83-23.31L243.58-68.08l34.28-16.36h0l.43-.2a2.65,2.65,0,0,0,1.5-2.3A2.45,2.45,0,0,0,279.72-87.75ZM80.46,4.21,75.62,6.52,57-68.53l39.33-2.9L265-83.83Z" transform="translate(1134.16 590.54)"/><path class="cls-2" d="M278.19-89.5A2.66,2.66,0,0,0,277-90l-11-1.82L111-117.29l-.22,0a2.69,2.69,0,0,0-2.73,1.77l-1,2.68-13,36.6L93.6-75a2.67,2.67,0,0,0,.39,2.5,2.66,2.66,0,0,0,2.13,1h.19L265-83.83h0l11.81-.87A2.62,2.62,0,0,0,277.9-85a1.74,1.74,0,0,0,.36-.24,2.68,2.68,0,0,0,1-2A2.66,2.66,0,0,0,278.19-89.5ZM99.51-76.67,112.06-112l144.78,23.8Z" transform="translate(1134.16 590.54)"/><path class="cls-2" d="M278-87.29a2.67,2.67,0,0,0-3.48-1.11l-4.77,2.28L265-83.83h0L80.46,4.21A2.69,2.69,0,0,0,79,7.11l.57,3.07,4.77,25.88a2.66,2.66,0,0,0,1.57,2,2.62,2.62,0,0,0,1.06.22,2.67,2.67,0,0,0,1.44-.43L277.14-83.75a2.64,2.64,0,0,0,.72-.69h0a2.8,2.8,0,0,0,.35-.69,1,1,0,0,0,0-.14A2.63,2.63,0,0,0,278-87.29ZM88.61,31.74,84.22,8l48.83-23.31L243.64-68.12l-.06,0Z" transform="translate(1134.16 590.54)"/><path class="cls-2" d="M-265.36,796.34-312,739a2.67,2.67,0,0,0-3.47-.59L-458.91,827a2.68,2.68,0,0,0-1.19,2.88,2,2,0,0,0,.09.33,2.66,2.66,0,0,0,1.51,1.54,1.35,1.35,0,0,0,.34.11,2.39,2.39,0,0,0,.66.09,3.28,3.28,0,0,0,.43,0l.56-.09h0l6.43-1.06,12.89-2.12h0l50.36-8.27L-287.34,804l20.34-3.35a2.65,2.65,0,0,0,2.06-1.69A2.65,2.65,0,0,0-265.36,796.34Zm-104,16.07-76.92,12.65h0l131.67-81.35,42.8,52.67Z" transform="translate(1134.16 590.54)"/><path class="cls-2" d="M-232.19,844.64a2.64,2.64,0,0,0-2-1.09l-40.21-3-5.43-.39-157.38-11.58-20.06-1.48a2.61,2.61,0,0,0-1.24.22,2.6,2.6,0,0,0-1.54,1.76,2.37,2.37,0,0,0-.08.74,2.65,2.65,0,0,0,1.51,2.35l.43.2h0l34.21,16.33L-259.84,927l4.34,2.08a2.56,2.56,0,0,0,1.15.27,2.68,2.68,0,0,0,1.14-.26,2.68,2.68,0,0,0,1.45-1.77l20-80.5A2.68,2.68,0,0,0-232.19,844.64Zm-23.73,78.73-4.77-2.27-.06,0-184.51-88,168.65,12.4,39.34,2.9Z" transform="translate(1134.16 590.54)"/><path class="cls-2" d="M-273.91,841.88l-.46-1.29-13-36.6-1-2.68a2.66,2.66,0,0,0-2.95-1.74l-78.11,12.84-76.9,12.64-11.07,1.81a2.63,2.63,0,0,0-1.16.5,2.66,2.66,0,0,0-1.07,2.26,2.71,2.71,0,0,0,1,2,2.59,2.59,0,0,0,.39.25,2.66,2.66,0,0,0,1.08.32l11.81.87h0l168.65,12.4h.19a2.65,2.65,0,0,0,2.12-1.05A2.64,2.64,0,0,0-273.91,841.88Zm-163.23-13.27,50.36-8.27,94.42-15.52,12.56,35.38Z" transform="translate(1134.16 590.54)"/><path class="cls-2" d="M-260.69,921.1l-.06,0-184.51-88h0l-4.8-2.29-4.76-2.28h0a2.68,2.68,0,0,0-3.48,1.11,2.66,2.66,0,0,0-.23,2,.58.58,0,0,0,.05.14,2.55,2.55,0,0,0,.34.68h0a2.64,2.64,0,0,0,.72.69l188.74,121.56a2.61,2.61,0,0,0,1.45.43,2.54,2.54,0,0,0,1.05-.22,2.67,2.67,0,0,0,1.58-2l4.77-25.88.57-3.08A2.69,2.69,0,0,0-260.69,921.1Zm-3.83,3.71-4.38,23.79-155-99.85Z" transform="translate(1134.16 590.54)"/><path class="cls-2" d="M692.47-458.5l-5.24-41-.42-3.34-.13-1H438.42l-.42,3.27-5.36,42.06a37.22,37.22,0,0,0,9,29.28,37.19,37.19,0,0,0,27.91,12.6H655.58a37.15,37.15,0,0,0,27.9-12.6A37.2,37.2,0,0,0,692.47-458.5Zm-12.73,26a32.21,32.21,0,0,1-24.16,10.92H469.52a32.21,32.21,0,0,1-24.16-10.92,32.19,32.19,0,0,1-7.76-25.33l5.21-41H682.28l5.23,41A32.2,32.2,0,0,1,679.74-432.53Z" transform="translate(1134.16 590.54)"/><path class="cls-2" d="M691.72-507.29a7.66,7.66,0,0,0-4.31-6.07,7.23,7.23,0,0,0-1.79-.59,7.31,7.31,0,0,0-1.49-.15H442.83a7.65,7.65,0,0,0-7.63,7.64,7.62,7.62,0,0,0,2.8,5.9,7.6,7.6,0,0,0,4.81,1.73H684.13a7.62,7.62,0,0,0,3.1-.66,7.65,7.65,0,0,0,4.54-7A7.55,7.55,0,0,0,691.72-507.29Zm-248.89,3.46a2.62,2.62,0,0,1-2.63-2.63,2.63,2.63,0,0,1,2.63-2.64h241.3a2.59,2.59,0,0,1,2,.94,2.62,2.62,0,0,1,.63,1.7,2.64,2.64,0,0,1-2.64,2.63Z" transform="translate(1134.16 590.54)"/><path class="cls-2" d="M691.25-516.72a9.4,9.4,0,0,0-4.07-3.49,9.33,9.33,0,0,0-3.85-.82,9.24,9.24,0,0,0-3.84.82,9.35,9.35,0,0,0-4.07,3.5,8.94,8.94,0,0,0-1.18,2.61,9.32,9.32,0,0,0-.34,2.5,9.32,9.32,0,0,0,.34,2.5,9.38,9.38,0,0,0,3.76,5.27,9.33,9.33,0,0,0,5.33,1.66,9.57,9.57,0,0,0,3.48-.66,9.47,9.47,0,0,0,4.91-4.46,9.34,9.34,0,0,0,1-4.31A9.34,9.34,0,0,0,691.25-516.72Zm-5.11,8.56a4.46,4.46,0,0,1-2.81,1,4.41,4.41,0,0,1-3.66-1.94,4.48,4.48,0,0,1-.77-2.5,4.36,4.36,0,0,1,.69-2.37l.08-.13a4.41,4.41,0,0,1,3.66-1.94,4.43,4.43,0,0,1,3.75,2.07,4.47,4.47,0,0,1,.33.61,4.5,4.5,0,0,1,.36,1.76A4.44,4.44,0,0,1,686.14-508.16Z" transform="translate(1134.16 590.54)"/><path class="cls-2" d="M693.93-546.27a5.06,5.06,0,0,0-3.78-1.74H676.52a5.06,5.06,0,0,0-3.78,1.74,6.62,6.62,0,0,0-1.58,5.16l3.42,21.86a6.63,6.63,0,0,0,.84,2.54,5.45,5.45,0,0,0,3.33,2.61,3.87,3.87,0,0,0,.84.13,1.77,1.77,0,0,0,.32,0h6.83a1.94,1.94,0,0,0,.34,0,5.29,5.29,0,0,0,4.17-2.75,6.42,6.42,0,0,0,.84-2.53l3.4-21.75v-.11A6.61,6.61,0,0,0,693.93-546.27ZM687.14-520l0,.11a1.48,1.48,0,0,1-.38.92H680a1.33,1.33,0,0,1-.43-.93l0-.35-3.36-21.49a1.63,1.63,0,0,1,.39-1.32h13.6a1.57,1.57,0,0,1,.42,1.32l-3.36,21.49Z" transform="translate(1134.16 590.54)"/><path class="cls-2" d="M512.64-486.59v52.74H614.32v-52.74Zm96.68,47.75H517.64v-42.75h91.68Z" transform="translate(1134.16 590.54)"/><path class="cls-2" d="M591.88-468.71h-56.8a2.49,2.49,0,0,1-2.5-2.49,2.5,2.5,0,0,1,2.5-2.5h56.8a2.5,2.5,0,0,1,2.5,2.5A2.49,2.49,0,0,1,591.88-468.71Z" transform="translate(1134.16 590.54)"/><path class="cls-2" d="M591.88-446.73h-56.8a2.5,2.5,0,0,1-2.5-2.5,2.5,2.5,0,0,1,2.5-2.5h56.8a2.5,2.5,0,0,1,2.5,2.5A2.5,2.5,0,0,1,591.88-446.73Z" transform="translate(1134.16 590.54)"/><path class="cls-2" d="M748.37,409.25c0-2.84-.15-5.71-.31-8.6,0-.86-.1-1.73-.16-2.6l-.09-1.33c0-.53-.09-1.08-.13-1.62-.06-.75-.12-1.5-.19-2.25l-.21-2.21q-.43-4.44-1.06-8.9a269.14,269.14,0,0,0-20.4-72c-.56-1.29-1.14-2.57-1.73-3.84-.29-.62-.57-1.24-.87-1.86-.68-1.44-1.38-2.86-2.08-4.27l-1-1.93q-1-2-2.07-4l-1-1.76c-.69-1.25-1.39-2.48-2.09-3.71s-1.41-2.44-2.15-3.62L711.79,283a158.89,158.89,0,0,0-12.91-18c-.57-.67-1.13-1.34-1.7-2-1.07-1.25-2.16-2.47-3.25-3.64l-.09-.09c-1.12-1.21-2.27-2.38-3.42-3.5l-.46-.45c-1-1-2-1.92-3-2.83l-.27-.24q-1.7-1.51-3.4-2.9c-.55-.45-1.1-.89-1.65-1.31-.27-.22-.54-.43-.82-.63a.16.16,0,0,0-.08-.06l-1.37-1c-.55-.4-1.1-.8-1.66-1.17l-.83-.57c-1.49-1-3-1.94-4.51-2.8-.29-.17-.58-.34-.87-.49-.54-.32-1.09-.61-1.64-.89l-1.65-.84-2-.93c-1.13-.5-2.26-1-3.39-1.4a54.42,54.42,0,0,0-13.77-3.32,49.1,49.1,0,0,0-5.27-.28h0c-27.06,0-53.5,21.48-74.45,60.47-18.93,35.21-30.22,79.47-30.22,118.37,0,37,10.35,64.85,30.77,82.85,17.73,15.64,42.6,23.57,73.9,23.57a163.21,163.21,0,0,0,18.17-1l.32,0c17.83-2,37.19-7.67,53-20.54,1-.84,2-1.71,3-2.61.6-.54,1.18-1.08,1.75-1.62s1.34-1.31,2-2l1.07-1.12.06-.07c.37-.4.73-.81,1.1-1.22.65-.72,1.28-1.46,1.9-2.22.32-.38.63-.77,1-1.17.11-.13.22-.26.32-.4s.35-.45.52-.68c.49-.63,1-1.28,1.45-1.94.37-.5.73-1,1.08-1.51s.65-1,1-1.46l.71-1.1q1.69-2.68,3.26-5.59l.47-.88a99,99,0,0,0,7.16-18c0-.16.09-.31.13-.47.41-1.44.8-2.91,1.17-4.42,0-.21.1-.42.16-.64.34-1.46.67-2.95,1-4.47,0-.23.1-.45.14-.68.3-1.52.57-3.08.82-4.66,0-.22.07-.43.11-.64.25-1.63.47-3.29.67-5l.06-.5q.33-2.76.55-5.65c0-.18,0-.36,0-.55.13-1.69.24-3.42.31-5.18,0-.39,0-.78,0-1.18,0-.59,0-1.18.06-1.78s0-1,0-1.48,0-1,0-1.56c0-.8,0-1.61,0-2.42C748.4,411.38,748.39,410.32,748.37,409.25ZM669.76,511.7c-.55.11-1.1.2-1.66.29l-1.51.24c-1.62.25-3.27.47-4.94.66a160.71,160.71,0,0,1-17.92,1c-45.47,0-99.67-17.6-99.67-101.42,0-78.25,46-173.84,99.67-173.84h0c.53,0,1.06,0,1.58,0h.28a48.2,48.2,0,0,1,10.3,1.57,52.23,52.23,0,0,1,5.15,1.66c.66.25,1.32.52,2,.8a61.89,61.89,0,0,1,5.92,2.88l.63.35,1.33.78,1,.6c.64.4,1.29.82,1.94,1.25q1.45,1,2.91,2c13.06,9.55,25.37,24.58,36,44,.35.61.68,1.22,1,1.84l1.15,2.18c.53,1,1,2,1.57,3.06s1,2.07,1.54,3.13l1.47,3.09a.42.42,0,0,1,0,.1q1.43,3.06,2.77,6.18c.44,1,.89,2.08,1.31,3.13.36.87.72,1.74,1.07,2.61q1.44,3.58,2.78,7.25c.33.87.65,1.76,1,2.64l.9,2.59c.24.7.48,1.39.71,2.09a.23.23,0,0,0,0,.09c.43,1.28.84,2.56,1.24,3.84.06.19.12.39.19.59.21.64.4,1.28.59,1.91.44,1.42.86,2.85,1.28,4.3,1.25,4.32,2.39,8.68,3.4,13,.18.71.35,1.43.5,2.15s.33,1.49.49,2.23.33,1.47.47,2.2q1.38,6.57,2.39,13.15c.24,1.46.45,2.92.64,4.37.11.73.2,1.46.29,2.19.38,2.92.69,5.82.95,8.71.06.72.13,1.44.18,2.16,0,.56.1,1.11.13,1.67l.09,1.2c.07,1,.13,2,.18,3,.09,1.7.16,3.38.21,5.05,0,1,.06,2,.07,3s0,2.12,0,3.17,0,2.38,0,3.55c0,.22,0,.43,0,.65,0,.93-.05,1.86-.09,2.77,0,.41,0,.82,0,1.23,0,.91-.08,1.8-.14,2.69s-.12,1.75-.19,2.62-.14,1.71-.22,2.55a.12.12,0,0,1,0,.1c-4.38,45.43-27.94,73.57-68.93,82.33C672.42,511.21,671.1,511.47,669.76,511.7Z" transform="translate(1134.16 590.54)"/><path class="cls-2" d="M718.31,494.7c-1,.9-2,1.77-3,2.61C716.3,496.47,717.32,495.59,718.31,494.7ZM709.71,246a17.23,17.23,0,0,0,.7-3.29c-9.9-6.06-20-9.12-30.26-9.12h-31c-.05.09-.09.19-.14.28a54.42,54.42,0,0,1,13.77,3.32c1.13.43,2.26.9,3.39,1.4h13.94c10.23,0,20.46,3.43,30.46,10.18A2.48,2.48,0,0,1,709.71,246Zm31.83,27.08c-1-1.35-2-2.68-3-4l-1.17-1.5c-.9-1.16-1.83-2.29-2.76-3.39l-.78-.92q-.6-.71-1.2-1.38l-.9-1c-.5-.56-1-1.11-1.52-1.66s-1.1-1.17-1.65-1.72-1.25-1.28-1.89-1.9-1.35-1.31-2-1.95-1.16-1.08-1.75-1.61h0q-1.9-1.71-3.83-3.25l-1-.78c-1-.81-2.08-1.58-3.12-2.32-1.51-1.08-3-2.07-4.55-3-9.9-6.06-20-9.12-30.26-9.12H643.74v5c.53,0,1.06,0,1.58,0h.28a48.2,48.2,0,0,1,10.3,1.57,52.31,52.31,0,0,1,5.15,1.67c.66.25,1.32.51,2,.79a61.89,61.89,0,0,1,5.92,2.88l.63.35,1.33.78c.33.19.65.39,1,.6.64.4,1.29.82,1.94,1.25,1,.65,1.94,1.33,2.91,2,.69.51,1.38,1,2.07,1.58q.69.54,1.38,1.11c.2.15.39.31.58.47a105.42,105.42,0,0,1,11.11,10.78,142.08,142.08,0,0,1,12.39,16.08q4.47,6.66,8.51,14l1,1.84,1.15,2.18c.53,1,1,2,1.57,3.06s1,2.08,1.54,3.13,1,2.05,1.47,3.09a.42.42,0,0,1,0,.1c1,2,1.88,4.1,2.77,6.18.45,1,.89,2.08,1.31,3.13.37.87.72,1.74,1.07,2.61q1.44,3.58,2.78,7.25l1,2.64.9,2.59c.24.69.47,1.39.71,2.09a.23.23,0,0,0,0,.09c.43,1.28.84,2.56,1.24,3.84.06.19.12.39.19.59.2.63.4,1.27.59,1.91.44,1.42.86,2.85,1.28,4.3,1.24,4.31,2.38,8.67,3.4,13,.18.71.35,1.43.5,2.15s.33,1.49.49,2.23.32,1.46.47,2.2c.91,4.37,1.71,8.77,2.39,13.15.23,1.47.44,2.93.64,4.37.1.73.19,1.46.29,2.19.37,2.91.69,5.82.95,8.71.06.72.13,1.44.18,2.16,0,.56.09,1.11.13,1.67l.09,1.2c.07,1,.13,2,.18,3,.09,1.7.16,3.38.21,5.05,0,1,.06,2,.07,3s0,2.11,0,3.17,0,2.38,0,3.55c0,.22,0,.43,0,.65,0,.93-.05,1.86-.09,2.77,0,.41,0,.82,0,1.23,0,.91-.08,1.8-.14,2.69s-.11,1.75-.19,2.62-.13,1.71-.22,2.55a.12.12,0,0,1,0,.1c-1.3,13.94-4.39,26.28-9.23,36.86a80.15,80.15,0,0,1-9.9,16.35c-11.65,14.81-28.37,24.58-49.8,29.12-1.31.28-2.63.54-4,.77-.55.11-1.1.2-1.66.29l-1.51.24c-1.62.25-3.27.47-4.94.66l-21.73,2.49,21.74,2.48.24,0a164.67,164.67,0,0,0,18.25,1c32,0,57.17-8.25,75-24.52l.77-.7q2.21-2.08,4.26-4.33c.38-.42.77-.85,1.14-1.29s.86-1,1.27-1.49l.84-1,.64-.81c.58-.73,1.15-1.48,1.7-2.25q1.85-2.55,3.51-5.26c.22-.36.44-.71.65-1.07.08-.13.16-.26.23-.39.23-.4.47-.8.69-1.21s.51-.9.76-1.36c.5-.91,1-1.83,1.44-2.77l.69-1.42c.17-.33.32-.65.47-1,.85-1.84,1.66-3.71,2.41-5.65,5.47-14.11,8.24-30.86,8.24-49.89C784.81,364.37,767.54,309.13,741.54,273.09Zm28.08,192.8A77.26,77.26,0,0,1,752.44,490c-16.38,15.39-39.81,23.4-69.68,23.84a95.26,95.26,0,0,0,23.08-9.93l.4-.25c.94-.57,1.87-1.16,2.78-1.76l.67-.47c.84-.57,1.68-1.14,2.49-1.74,1-.76,2.07-1.56,3.08-2.38s2.06-1.72,3-2.61c.6-.54,1.18-1.08,1.75-1.62s1.34-1.31,2-2l1.07-1.12.06-.07c.37-.4.73-.81,1.1-1.22,1.09-1.22,2.15-2.49,3.17-3.79A84.51,84.51,0,0,0,738,467.52c5.35-11.69,8.65-25.41,9.88-40.93,0-.18,0-.36,0-.55.13-1.71.23-3.43.31-5.18,0-.39,0-.78,0-1.18,0-.59,0-1.18.06-1.78s0-1,0-1.48,0-1,0-1.56c0-.8,0-1.61,0-2.42,0-1.06,0-2.12,0-3.19,0-2.84-.15-5.71-.31-8.6,0-.87-.1-1.73-.16-2.6l-.09-1.33c0-.53-.09-1.08-.13-1.62-.06-.75-.12-1.5-.19-2.25l-.21-2.21q-.45-4.44-1.06-8.9a271.46,271.46,0,0,0-20.4-72q-1.27-2.88-2.6-5.7c-.68-1.44-1.38-2.86-2.08-4.27l-1-1.93q-1-2-2.07-4l-1-1.76c-.69-1.25-1.39-2.48-2.09-3.71s-1.43-2.43-2.15-3.62L711.79,283q-1.65-2.65-3.36-5.2A158.64,158.64,0,0,0,698.88,265c-1.09-1.3-2.18-2.57-3.28-3.79l-1.67-1.84-.09-.09c-1.13-1.21-2.27-2.37-3.42-3.5l-.46-.45c-1-1-2-1.92-3-2.83l-.27-.24q-1.7-1.51-3.4-2.9c-.55-.45-1.1-.89-1.65-1.31-.27-.22-.54-.43-.82-.63a.16.16,0,0,0-.08-.06l-1.37-1c-.55-.4-1.1-.8-1.66-1.17l-.83-.57c-1.49-1-3-1.94-4.51-2.8-.29-.17-.58-.34-.87-.49-.54-.32-1.09-.61-1.64-.89l-1.65-.84-2-.93h13.94c10.23,0,20.46,3.43,30.46,10.18q2.13,1.44,4.23,3.07l1.1.87a113.64,113.64,0,0,1,18.67,19.43c27,35.06,45.2,91.43,45.2,140.29C779.81,433.35,776.38,451.33,769.62,465.89Z" transform="translate(1134.16 590.54)"/><path class="cls-2" d="M818.88,325.33c-9.08-38.4-26.24-63.38-51-74.24-18.49-8.11-37.08-6.24-49.81-3.05l-1.22.32-4.79,1.27,2.77,2.22,1.1.87a113.64,113.64,0,0,1,18.67,19.43l.8,1,1.31-.07c1.64-.08,3.25-.09,4.82,0a42,42,0,0,1,15.33,3.46c16.28,7.23,28.06,25.79,35,55.17,14.26,60.25,11.65,105.69-7.15,124.66a31.87,31.87,0,0,1-8.16,5.95,34.71,34.71,0,0,1-5.43,2.22l-1.06.34-.46,1A77.26,77.26,0,0,1,752.44,490l-4.37,4.11,6,.2,1,0,2,0a71.8,71.8,0,0,0,26.32-4.63,60.39,60.39,0,0,0,21-13.83C839.6,440.41,828.58,366.33,818.88,325.33Zm-18,147.05c-10.55,10.63-24.25,16.32-40.77,16.93.38-.42.77-.85,1.14-1.29s.86-1,1.27-1.49l.84-1,.64-.81c.58-.74,1.14-1.49,1.7-2.25q1.85-2.55,3.51-5.26c.22-.36.44-.71.65-1.07.08-.13.16-.26.23-.39.23-.4.47-.8.69-1.21s.51-.9.76-1.36c.49-.91,1-1.84,1.44-2.77l.69-1.42a37.5,37.5,0,0,0,14.59-9.06c20.05-20.24,23.12-67.37,8.46-129.33-7.33-31-20.06-50.69-37.84-58.59a48.41,48.41,0,0,0-21.12-3.9c-.12-.16-.25-.31-.38-.47-.9-1.16-1.83-2.29-2.76-3.39l-.78-.92q-.6-.71-1.2-1.38l-.9-1c-.5-.56-1-1.11-1.52-1.66s-1.1-1.16-1.65-1.72-1.25-1.28-1.89-1.9-1.35-1.31-2-1.95-1.16-1.08-1.75-1.61c11.71-2.44,27.42-3.23,43,3.6,23.22,10.2,39.43,34,48.13,70.81,4.6,19.46,9.54,46.54,9.54,73.1C823.56,427.6,818.07,455,800.9,472.38Z" transform="translate(1134.16 590.54)"/><path class="cls-2" d="M712.09,249.27a2.5,2.5,0,0,1-2.38-3.26,16.64,16.64,0,0,0,.79-5c0-12.45-14.14-22.59-31.53-22.59-15.1,0-28.12,7.71-31,18.34l-.18.66-.31.3-.22.24a2.49,2.49,0,0,1-3.53-.1,2.52,2.52,0,0,1-.57-2.46c3.45-12.74,18.48-22,35.77-22,20.14,0,36.53,12.37,36.53,27.58a21.52,21.52,0,0,1-1,6.53A2.5,2.5,0,0,1,712.09,249.27Z" transform="translate(1134.16 590.54)"/><path class="cls-2" d="M598.65,289v60.17H688.8V289Zm85.15,55.17H603.65V294H683.8Z" transform="translate(1134.16 590.54)"/><path class="cls-2" d="M669.19,310.49H618.27a2.5,2.5,0,1,1,0-5h50.92a2.5,2.5,0,1,1,0,5Z" transform="translate(1134.16 590.54)"/><path class="cls-2" d="M669.19,332.6H618.27a2.5,2.5,0,0,1,0-5h50.92a2.5,2.5,0,0,1,0,5Z" transform="translate(1134.16 590.54)"/><path class="cls-2" d="M566.25,425.05v33.83a28.88,28.88,0,0,0,28.85,28.84h88A28.88,28.88,0,0,0,712,458.88V425.05ZM707,458.88a23.87,23.87,0,0,1-23.86,23.84h-88a23.87,23.87,0,0,1-23.85-23.84V430.05H707Z" transform="translate(1134.16 590.54)"/><path class="cls-2" d="M691.25,391.61H587a20.76,20.76,0,0,0-20.74,20.74v17.7H712v-17.7A20.76,20.76,0,0,0,691.25,391.61Zm-120,20.74A15.77,15.77,0,0,1,587,396.6H691.25A15.77,15.77,0,0,1,707,412.35v12.7H571.25Z" transform="translate(1134.16 590.54)"/><path class="cls-2" d="M712.09,427.56a2.6,2.6,0,1,1-2.6-2.6A2.6,2.6,0,0,1,712.09,427.56Z" transform="translate(1134.16 590.54)"/><path class="cls-2" d="M720.66,420.59a14.16,14.16,0,0,0-8.67,2.54,6.87,6.87,0,0,0-1.72,1.92l0,0a5,5,0,0,0-.66,2.47,4.91,4.91,0,0,0,.67,2.48s0,0,0,0A6.8,6.8,0,0,0,712,432a14.23,14.23,0,0,0,8.67,2.53,5.62,5.62,0,0,0,4.69-2.45,7.86,7.86,0,0,0,1.35-4.52C726.7,423.53,724.15,420.59,720.66,420.59Zm.61,8.6a.64.64,0,0,1-.61.33c-3.83,0-5.89-1.46-6.07-2,.18-.5,2.24-2,6.07-2,1,0,1.05,1.95,1.05,2A3,3,0,0,1,721.27,429.19Z" transform="translate(1134.16 590.54)"/><path class="cls-2" d="M783.44,825.22,513.62,555.48a13,13,0,0,0-18.37,0L444,606.69a13,13,0,0,0,0,18.38L713.83,894.81a13,13,0,0,0,18.37,0l51.24-51.22A13,13,0,0,0,783.44,825.22Zm-2.83,15.54L729.37,892a9,9,0,0,1-12.71,0L606.9,782.25l-4.42-4.41L585.15,760.5,541.67,717l-4.42-4.4-17.33-17.34-43.48-43.47L472,647.41l-17.33-17.33-4.41-4.41-3.44-3.43a9,9,0,0,1,0-12.72l51.24-51.21a9,9,0,0,1,12.71,0L780.61,828A9,9,0,0,1,780.61,840.76Z" transform="translate(1134.16 590.54)"/><path class="cls-2" d="M464.53,611.43,450,626l4.41,4.41,14.56-14.55a3.12,3.12,0,1,0-4.41-4.41Z" transform="translate(1134.16 590.54)"/><path class="cls-2" d="M486.27,633.17l-14.55,14.55,4.41,4.41,14.55-14.55a3.12,3.12,0,1,0-4.41-4.41Z" transform="translate(1134.16 590.54)"/><path class="cls-2" d="M508,654.91l-14.55,14.55,4.41,4.41,14.55-14.55a3.12,3.12,0,0,0-4.41-4.41Z" transform="translate(1134.16 590.54)"/><path class="cls-2" d="M551.5,698.38,537,712.93l4.41,4.41,14.55-14.55a3.12,3.12,0,0,0-4.41-4.41Z" transform="translate(1134.16 590.54)"/><path class="cls-2" d="M529.75,676.65,515.2,691.19l4.41,4.41,14.55-14.55a3.11,3.11,0,0,0-4.41-4.4Z" transform="translate(1134.16 590.54)"/><path class="cls-2" d="M573.24,720.12l-14.55,14.55,4.41,4.41,14.55-14.55a3.12,3.12,0,0,0-4.41-4.41Z" transform="translate(1134.16 590.54)"/><path class="cls-2" d="M616.73,763.6l-14.56,14.54,4.41,4.41L621.14,768a3.11,3.11,0,0,0-4.41-4.4Z" transform="translate(1134.16 590.54)"/><path class="cls-2" d="M638.47,785.33l-14.55,14.55,4.41,4.41,14.55-14.55a3.12,3.12,0,0,0-4.41-4.41Z" transform="translate(1134.16 590.54)"/><path class="cls-2" d="M595,741.86l-14.55,14.55,4.41,4.41,14.55-14.55a3.12,3.12,0,0,0-4.41-4.41Z" transform="translate(1134.16 590.54)"/><path class="cls-2" d="M660.21,807.07l-14.55,14.55,4.41,4.41,14.55-14.55a3.12,3.12,0,0,0-4.41-4.41Z" transform="translate(1134.16 590.54)"/><path class="cls-2" d="M682,828.81,667.4,843.36l4.41,4.41,14.56-14.55a3.12,3.12,0,0,0-4.41-4.41Z" transform="translate(1134.16 590.54)"/><path class="cls-2" d="M703.7,850.55l-14.55,14.54,4.41,4.41L708.11,855a3.11,3.11,0,0,0-4.41-4.4Z" transform="translate(1134.16 590.54)"/><path class="cls-2" d="M725.44,872.28l-14.55,14.55,4.41,4.41,14.55-14.55a3.12,3.12,0,0,0-4.41-4.41Z" transform="translate(1134.16 590.54)"/><path class="cls-2" d="M501.16,581.11a6.52,6.52,0,0,0,0,9.24l245.76,245.7a6.53,6.53,0,0,0,9.24-9.24L510.4,581.11A6.54,6.54,0,0,0,501.16,581.11Z" transform="translate(1134.16 590.54)"/><path class="cls-2" d="M-164.82,1356.08v16.81h5.09v-16.81a2.55,2.55,0,0,0-2.54-2.55A2.55,2.55,0,0,0-164.82,1356.08Z" transform="translate(1134.16 590.54)"/><path class="cls-2" d="M-139.7,1356.08v16.81h5.1v-16.81a2.55,2.55,0,0,0-2.55-2.55A2.55,2.55,0,0,0-139.7,1356.08Z" transform="translate(1134.16 590.54)"/><path class="cls-2" d="M-114.57,1356.08v16.81h5.09v-16.81a2.55,2.55,0,0,0-2.55-2.55A2.55,2.55,0,0,0-114.57,1356.08Z" transform="translate(1134.16 590.54)"/><path class="cls-2" d="M-64.33,1356.08v16.81h5.1v-16.81a2.55,2.55,0,0,0-2.55-2.55A2.55,2.55,0,0,0-64.33,1356.08Z" transform="translate(1134.16 590.54)"/><path class="cls-2" d="M-89.45,1356.08v16.81h5.1v-16.81a2.55,2.55,0,0,0-2.55-2.55A2.55,2.55,0,0,0-89.45,1356.08Z" transform="translate(1134.16 590.54)"/><path class="cls-2" d="M-39.2,1356.08v16.81h5.09v-16.81a2.55,2.55,0,0,0-2.54-2.55A2.55,2.55,0,0,0-39.2,1356.08Z" transform="translate(1134.16 590.54)"/><path class="cls-2" d="M11.05,1356.08v16.81h5.09v-16.81a2.55,2.55,0,1,0-5.09,0Z" transform="translate(1134.16 590.54)"/><path class="cls-2" d="M36.17,1356.08v16.81h5.1v-16.81a2.55,2.55,0,0,0-5.1,0Z" transform="translate(1134.16 590.54)"/><path class="cls-2" d="M-14.08,1356.08v16.81H-9v-16.81a2.55,2.55,0,0,0-2.55-2.55A2.55,2.55,0,0,0-14.08,1356.08Z" transform="translate(1134.16 590.54)"/><path class="cls-2" d="M61.29,1356.08v16.81h5.1v-16.81a2.55,2.55,0,0,0-5.1,0Z" transform="translate(1134.16 590.54)"/><path class="cls-2" d="M86.42,1356.08v16.81h5.09v-16.81a2.55,2.55,0,1,0-5.09,0Z" transform="translate(1134.16 590.54)"/><path class="cls-2" d="M111.54,1356.08v16.81h5.1v-16.81a2.55,2.55,0,0,0-5.1,0Z" transform="translate(1134.16 590.54)"/><path class="cls-2" d="M136.67,1356.08v16.81h5.09v-16.81a2.55,2.55,0,1,0-5.09,0Z" transform="translate(1134.16 590.54)"/><path class="cls-2" d="M-161.18,1317.4a5.34,5.34,0,0,0,5.34,5.34h284a5.34,5.34,0,0,0,0-10.68h-284A5.34,5.34,0,0,0-161.18,1317.4Z" transform="translate(1134.16 590.54)"/><path class="cls-2" d="M56.93,1295.83a77.84,77.84,0,0,0-68.46-40.72A77.86,77.86,0,0,0-80,1295.83l-2,3.69H58.94Zm-130.38-1.3a72.85,72.85,0,0,1,61.92-34.43,72.85,72.85,0,0,1,61.92,34.43Zm130.38,1.3a77.84,77.84,0,0,0-68.46-40.72A77.86,77.86,0,0,0-80,1295.83l-2,3.69H58.94Zm-130.38-1.3a72.85,72.85,0,0,1,61.92-34.43,72.85,72.85,0,0,1,61.92,34.43Zm216.42,0H117.85a135.38,135.38,0,0,0-129.38-96.47,135.4,135.4,0,0,0-129.39,96.47H-168.8A11.48,11.48,0,0,0-180.27,1306v59.18a11.5,11.5,0,0,0,11.47,11.48H143a11.5,11.5,0,0,0,11.48-11.48V1306A11.49,11.49,0,0,0,143,1294.53Zm6.48,70.66a6.48,6.48,0,0,1-6.48,6.48H-168.8a6.49,6.49,0,0,1-6.47-6.48V1306a6.49,6.49,0,0,1,6.47-6.49h31.66l.51-1.83a130.36,130.36,0,0,1,125.1-94.64,130.38,130.38,0,0,1,125.11,94.64l.51,1.83H143a6.49,6.49,0,0,1,6.48,6.49Zm-161-110.08A77.86,77.86,0,0,0-80,1295.83l-2,3.69H58.94l-2-3.69A77.84,77.84,0,0,0-11.53,1255.11Zm-61.92,39.42a72.85,72.85,0,0,1,61.92-34.43,72.85,72.85,0,0,1,61.92,34.43Z" transform="translate(1134.16 590.54)"/><path class="cls-2" d="M-853.39,352.61l-43-136.79a2.32,2.32,0,0,0-2.17-1.62h-.28a2.27,2.27,0,0,0-1.85,1.34,2.33,2.33,0,0,0-.2.73l-1.4,14.25h0L-912.38,334l-.39,4-1,10.13a2.33,2.33,0,0,0,.51,1.7,2.32,2.32,0,0,0,1.58.82l55.87,5h.21a2.29,2.29,0,0,0,1.8-.86A2.29,2.29,0,0,0-853.39,352.61Zm-56.23-5.86,1-10.44,0-.23,10.9-111.15L-858,351.39Z" transform="translate(1134.16 590.54)"/><path class="cls-2" d="M-898.31,214.31l-.21-.11a2.28,2.28,0,0,0-2.68.5l-91.34,97.37a2.3,2.3,0,0,0-.6,1.87,2.32,2.32,0,0,0,1.07,1.67l45.67,28.28a2.3,2.3,0,0,0,1.21.35,2.48,2.48,0,0,0,.76-.13,2.28,2.28,0,0,0,1.41-1.4l3-8.33,1.4-3.85,36.34-100h0l4.9-13.47a2.36,2.36,0,0,0,.14-.74A2.29,2.29,0,0,0-898.31,214.31Zm-44.78,116.91-3,8.18-42.15-26.11,84.29-89.85Z" transform="translate(1134.16 590.54)"/><path class="cls-2" d="M-897.21,216.32a2.32,2.32,0,0,0-1.54-1.19,2.25,2.25,0,0,0-1.9.42,2.24,2.24,0,0,0-.78,1l-2.49,6.86-39.15,107.71a.19.19,0,0,0,0,.07,2.36,2.36,0,0,0,.22,1.92,2.3,2.3,0,0,0,1.68,1.08l1.2.16,27.22,3.55,1.61.21.29,0a2.35,2.35,0,0,0,1.44-.5,2.36,2.36,0,0,0,.82-1.35l0-.23,10.9-111.15.72-7.33A2.31,2.31,0,0,0-897.21,216.32ZM-912.38,334l-26.21-3.42,36.34-100Z" transform="translate(1134.16 590.54)"/><path class="cls-2" d="M-930.94,367c-18.06,22.79-37.12,46.89-42.52,76.25-2.62,14.29-2.31,29.46,3.17,43.08,4.7,11.69,12.57,21.47,21.83,29.9,8.89,8.08,18.73,15,28,22.65a137.75,137.75,0,0,1,13,12c1,1,1.92,2.1,2.85,3.18l1.44,1.74c.23.28.45.57.68.86-.75-.95.33.45.38.52a80,80,0,0,1,5.17,7.94c1.57,2.74,2.93,5.57,4.22,8.45-.44-1-.05-.13,0,.06s.27.67.41,1c.3.76.58,1.51.86,2.28q.88,2.42,1.64,4.87c.89,3,1.65,5.94,2.26,9q.5,2.4.87,4.83c.05.36.1.72.16,1.08s.14,1.18,0,0c.11.9.22,1.81.31,2.72a111.92,111.92,0,0,1,.28,19.2c-.11,1.65-.27,3.29-.45,4.93,0,.37-.09.73-.13,1.09s-.15,1.19,0,0c-.12.9-.26,1.81-.4,2.71-.51,3.16-1.15,6.3-1.91,9.4a142.69,142.69,0,0,1-6.47,19.63c-.06.14-.44,1.05-.07.18l-.46,1.08-.95,2.13c-.77,1.69-1.56,3.36-2.39,5-1.51,3.06-3.13,6.08-4.82,9a205.38,205.38,0,0,1-11.15,17.3q-1.55,2.16-3.14,4.28l-1.43,1.89c-.72.94-.3.39-.14.18-.37.47-.73.94-1.1,1.4q-3.19,4.05-6.55,8c-2.22,2.61-4.5,5.19-6.81,7.73-2.11,2.32-2.46,6.21,0,8.48,2.3,2.11,6.23,2.48,8.48,0,19-20.88,35.67-44.34,45-71.17,8.69-25,10.11-53.42.84-78.49a92.53,92.53,0,0,0-21.13-33.23c-8.41-8.5-18.11-15.55-27.46-23-4.66-3.69-9.26-7.47-13.57-11.58-2-1.93-4-3.93-5.86-6-1-1.11-1.92-2.24-2.86-3.39-.15-.19-.69-.89,0,.06l-.59-.79c-.49-.65-1-1.32-1.43-2a63.59,63.59,0,0,1-4.45-7.44c-.38-.75-.74-1.51-1.09-2.27-.16-.36-.32-.72-.47-1.08.36.87,0-.05-.06-.19-.62-1.65-1.21-3.29-1.71-5s-.91-3.38-1.26-5.09c-.16-.76-.3-1.53-.43-2.29-.07-.39-.13-.77-.19-1.16-.29-1.88.11,1.18-.09-.72a78.13,78.13,0,0,1-.45-10.26c0-1.67.13-3.35.28-5,.07-.79.14-1.58.24-2.36,0-.4.09-.79.14-1.18-.15,1.15.08-.53.12-.76A93.39,93.39,0,0,1-960,438.32a100.85,100.85,0,0,1,3.29-9.86l.44-1.1c0-.11.52-1.26.29-.69l.43-1c.16-.38.33-.75.5-1.13q1.14-2.52,2.39-5a170,170,0,0,1,11-18.54c2.08-3.07,4.24-6.1,6.45-9.09,1.05-1.41,2.1-2.82,3.17-4.22l1.51-2c.12-.15.92-1.19.39-.5l1-1.23c2.22-2.85,4.46-5.68,6.71-8.52,1.94-2.45,2.57-6.11,0-8.48-2.17-2-6.4-2.62-8.48,0Z" transform="translate(1134.16 590.54)"/><path class="cls-2" d="M-923.91-247.49a139.85,139.85,0,0,0-85.71,29.22A141.59,141.59,0,0,0-1024.55-205a140,140,0,0,0-39.93,98c0,77.49,63.06,140.55,140.57,140.55a139.91,139.91,0,0,0,88.2-31.18A143.92,143.92,0,0,0-821.08-11.2a140.08,140.08,0,0,0,37.75-95.75C-783.33-184.45-846.39-247.49-923.91-247.49ZM-822.67-16.88q-2.28,2.56-4.68,5A136.28,136.28,0,0,1-872,18.29c-3.25,1.36-6.57,2.58-9.94,3.69a135,135,0,0,1-25,5.56q-3,.39-6.13.63c-3.57.29-7.19.43-10.83.43s-7.25-.14-10.83-.43q-3.09-.24-6.13-.63a134.49,134.49,0,0,1-25-5.57c-3.37-1.1-6.69-2.33-9.93-3.68a136.19,136.19,0,0,1-44.68-30.17q-2.4-2.43-4.68-5a135,135,0,0,1-34.33-87.61c0-.82,0-1.64,0-2.46s0-1.69,0-2.54A135,135,0,0,1-1025.14-197q2.28-2.56,4.68-5a135.81,135.81,0,0,1,44.67-30.16q4.88-2,9.94-3.69a133.59,133.59,0,0,1,25-5.57q3-.39,6.14-.63c3.58-.29,7.18-.43,10.83-.43s7.26.14,10.83.43q3.09.24,6.13.63a133.39,133.39,0,0,1,25,5.56q5.06,1.67,10,3.7A136.06,136.06,0,0,1-827.35-202q2.4,2.43,4.68,5a134.94,134.94,0,0,1,34.31,87.22q0,1.42,0,2.85c0,.72,0,1.43,0,2.15A135,135,0,0,1-822.67-16.88Z" transform="translate(1134.16 590.54)"/><path class="cls-2" d="M-938.39,31.81a318.38,318.38,0,0,1-22.2-45.27c-12.61-31.85-19-63.31-19-93.49v-.14c0-30.12,6.41-61.53,19-93.35a320.61,320.61,0,0,1,22.21-45.27l4.3,2.55a314.35,314.35,0,0,0-21.86,44.56c-12.35,31.23-18.62,62-18.64,91.51v.14c0,29.55,6.27,60.39,18.65,91.66a313.18,313.18,0,0,0,21.85,44.56Z" transform="translate(1134.16 590.54)"/><path class="cls-2" d="M-909.43,31.81l-4.3-2.54a314.2,314.2,0,0,0,21.84-44.56c12.38-31.27,18.66-62.11,18.66-91.66v-.25c0-29.48-6.31-60.23-18.64-91.4a315.43,315.43,0,0,0-21.86-44.56l4.3-2.55a320.61,320.61,0,0,1,22.21,45.27c12.56,31.76,19,63.13,19,93.23v.26c0,30.18-6.4,61.64-19,93.49A318.33,318.33,0,0,1-909.43,31.81Z" transform="translate(1134.16 590.54)"/><path class="cls-2" d="M-969.09,25.83A305,305,0,0,1-999.48-13c-20.86-32-31.44-63.6-31.44-93.94s10.59-62,31.44-93.93a304.11,304.11,0,0,1,30.39-38.84l3.69,3.37a298.89,298.89,0,0,0-29.89,38.2c-20.31,31.12-30.62,61.78-30.63,91.13s10.31,60.12,30.63,91.28a300.51,300.51,0,0,0,29.88,38.19Z" transform="translate(1134.16 590.54)"/><path class="cls-2" d="M-878.73,25.83l-3.69-3.38a298.14,298.14,0,0,0,29.89-38.19c20.33-31.15,30.64-61.84,30.64-91.21v-.32c-.07-29.29-10.38-59.87-30.64-90.88a297.39,297.39,0,0,0-29.9-38.21l3.68-3.38a301.6,301.6,0,0,1,30.4,38.86c20.8,31.84,31.38,63.33,31.46,93.6v.33c0,30.36-10.59,62-31.46,93.94A304.72,304.72,0,0,1-878.73,25.83Z" transform="translate(1134.16 590.54)"/><rect class="cls-2" x="107.85" y="573.67" width="204.82" height="5"/><rect class="cls-2" x="107.83" y="388.52" width="204.85" height="5"/><rect class="cls-2" x="72.18" y="480.9" width="276.15" height="5"/><path class="cls-2" d="M-923.91,61.57c-93.16,0-168.94-75.77-168.94-168.91a169.09,169.09,0,0,1,56.26-125.82l7.38-6.61,20.93,23-14.78,13.45-7.36-8.07a149.13,149.13,0,0,0-42.44,104.08c0,82.12,66.82,148.92,148.95,148.92A148.52,148.52,0,0,0-830.22,8.45l-7-7.67,14.78-13.45,20.53,22.56-7.27,6.73A168.42,168.42,0,0,1-923.91,61.57Z" transform="translate(1134.16 590.54)"/><path class="cls-4" d="M-923.91-266.25" transform="translate(1134.16 590.54)"/><polygon class="cls-2" points="225.08 692.96 195.43 692.96 195.43 641.63 200.43 641.63 200.43 687.96 220.08 687.96 220.08 641.65 225.08 641.65 225.08 692.96"/><path class="cls-2" d="M-835.93,124.12A29.24,29.24,0,0,0-865,97.42H-982.78a29.25,29.25,0,0,0-29.1,26.7c-.07.82-.11,1.66-.11,2.5v2.5h176.17v-2.5C-835.82,125.78-835.86,124.94-835.93,124.12Zm-170.93,0a24.23,24.23,0,0,1,24.08-21.7H-865a24.24,24.24,0,0,1,24.08,21.7Z" transform="translate(1134.16 590.54)"/><path class="cls-2" d="M-827.89,124.12h-192a14.48,14.48,0,0,0-14.46,14.46A14.47,14.47,0,0,0-1019.92,153h192a14.47,14.47,0,0,0,14.45-14.45A14.48,14.48,0,0,0-827.89,124.12Zm0,23.91h-192a9.46,9.46,0,0,1-9.46-9.45,9.47,9.47,0,0,1,9.46-9.46h192a9.46,9.46,0,0,1,9.45,9.46A9.45,9.45,0,0,1-827.89,148Z" transform="translate(1134.16 590.54)"/><path class="cls-2" d="M-169.84,1211.48a3.23,3.23,0,0,1-.71.2h0c-2.15.39-5.3-.85-8.07-3.68a18.78,18.78,0,0,1-2.3-2.92c-3.59-5.6-3.31-11.29-.79-13.07l1.95-1.38-1.27-2-.05-.07-.09-.14-1.24-1.93-2.06,1.18c-2.68,1.54-8-.58-11.53-6.17a15.11,15.11,0,0,1-2.66-9.07c0-.19,0-.37.07-.55s.07-.44.12-.66.1-.4.16-.58.13-.36.21-.54a3,3,0,0,1,.18-.36,1.09,1.09,0,0,0,.08-.15,4.43,4.43,0,0,1,.29-.42,3,3,0,0,1,.33-.38,3,3,0,0,1,.43-.37l1.87-1.33-2-3.35-.51-.87-1.69,1.08-2.53,1.62L-358.8,1266.13l-5.58,3.57a19.74,19.74,0,0,0-6,27.25l11.47,17.92a19.6,19.6,0,0,0,12.39,8.64,20,20,0,0,0,4.26.47,19.63,19.63,0,0,0,10.61-3.12l5.57-3.57,13.6-8.7,144.7-92.57.12-.07.07,0Zm-145.31,92.9-4.21,2.69-5.18,3.32-4.21,2.69-5.58,3.57a14.66,14.66,0,0,1-11.1,2,14.69,14.69,0,0,1-9.25-6.46l-11.47-17.92a14.76,14.76,0,0,1,4.46-20.35l5.58-3.57,9.4-6,4.2-2.7,138.83-88.8v.39a20.74,20.74,0,0,0,3.45,11,20.62,20.62,0,0,0,8.89,7.89,13.25,13.25,0,0,0,3.24,1c-.1.34-.18.69-.25,1s-.09.51-.12.77a7,7,0,0,0-.08.8,2.69,2.69,0,0,0,0,.4.61.61,0,0,0,0,.19,20.36,20.36,0,0,0,3.44,11.52l.54.81.29.4a21.16,21.16,0,0,0,1.43,1.79l.69.74c.19.2.39.39.59.57l.46.44.72.61a7.51,7.51,0,0,0,.65.5l.38.28c.37.26.74.51,1.11.73l.12.07.55.31c.2.12.4.22.6.32l.47.22.13.06Z" transform="translate(1134.16 590.54)"/><path class="cls-2" d="M-315.15,1304.38l-12.33-19.27-2.69-4.2-12.34-19.28-2.68-4.2-13.61,8.7,2.69,4.2,27.36,42.75,2.69,4.21,13.6-8.7Zm-9.39,6-27.35-42.74,5.18-3.32,13.63,21.29a.3.3,0,0,0,0,.08l.07.09,13.61,21.28Z" transform="translate(1134.16 590.54)"/><path class="cls-2" d="M-330.93,1286.85a2.5,2.5,0,0,1-2.11-1.15,2.5,2.5,0,0,1,.76-3.45l147.71-94.48a2.49,2.49,0,0,1,3.45.75,2.49,2.49,0,0,1-.76,3.45l-147.7,94.49A2.48,2.48,0,0,1-330.93,1286.85Z" transform="translate(1134.16 590.54)"/><path class="cls-2" d="M-171.42,1216.76c-4.78,0-10.13-3.37-13.72-9-4.81-7.51-4.57-16.23.53-19.85a2.51,2.51,0,0,1,3.49.6,2.5,2.5,0,0,1-.6,3.48c-2.52,1.78-2.8,7.46.79,13.07,3.41,5.33,8.41,7.47,11.09,6.4a2.5,2.5,0,0,1,3.25,1.39,2.51,2.51,0,0,1-1.39,3.25A9.34,9.34,0,0,1-171.42,1216.76Z" transform="translate(1134.16 590.54)"/><path class="cls-2" d="M-181,1188.65a2.5,2.5,0,0,1-.68,3.36l1.95-1.38Zm16-28h-.08l-.24,0-31.51,3.06-1.59.15-.61.06-3.29.32.76,1.3.23.38a11.44,11.44,0,0,0-2.28,7.25,20.74,20.74,0,0,0,3.45,11,20.62,20.62,0,0,0,8.89,7.89,13.25,13.25,0,0,0,3.24,1c-.1.34-.18.69-.25,1s-.09.51-.12.77a7,7,0,0,0-.08.8,2.69,2.69,0,0,0,0,.4.61.61,0,0,0,0,.19,20.36,20.36,0,0,0,3.44,11.52l.54.81.29.4a21.16,21.16,0,0,0,1.43,1.79l.69.74c.19.2.39.39.59.57l.46.44.72.61a7.51,7.51,0,0,0,.65.5l.38.28c.37.26.74.51,1.11.73l.12.07.55.31c.2.12.4.22.6.32l.47.22.13.06a12.36,12.36,0,0,0,5,1.13,9.07,9.07,0,0,0,3.44-.65l.22-.09.56-.22.36-.62,17.53-29.53,0,0v0l16.64-28.07Zm-5.48,51h0c-2.16.38-5.31-.85-8.07-3.69a18.78,18.78,0,0,1-2.3-2.92c-3.59-5.6-3.31-11.29-.79-13.07l1.95-1.38-1.27-2-.05-.07-.09-.14-1.24-1.93-2.06,1.18c-2.68,1.54-8-.58-11.53-6.17a15.11,15.11,0,0,1-2.66-9.07c0-.19,0-.37.07-.55s.07-.44.12-.66.1-.39.16-.58.13-.36.21-.54l.18-.36a1.09,1.09,0,0,0,.08-.15,4.43,4.43,0,0,1,.29-.42,3,3,0,0,1,.33-.38l30.16-2.93,5-.49,20.1-2-10.29,17.37-2.56,4.32Z" transform="translate(1134.16 590.54)"/><path class="cls-2" d="M-151.45,1186.85a2.56,2.56,0,0,1-1.27-.35,30.16,30.16,0,0,1-10.06-9.72,29.68,29.68,0,0,1-4.62-13.39,2.5,2.5,0,0,1,2.25-2.72,2.49,2.49,0,0,1,2.72,2.26,24.9,24.9,0,0,0,3.86,11.16,25.21,25.21,0,0,0,8.39,8.11,2.5,2.5,0,0,1,.88,3.42A2.49,2.49,0,0,1-151.45,1186.85Z" transform="translate(1134.16 590.54)"/><path class="cls-2" d="M393.73-523.17l-18.17-18.17a22.87,22.87,0,0,0-7.55-5,23.19,23.19,0,0,0-8.92-1.77,23.14,23.14,0,0,0-16.47,6.82l-19.06,19.06-147,147-.06.07-.11.1h0l3.17,3.83a4.28,4.28,0,0,1,.66-.37,3.82,3.82,0,0,1,.55-.24l.5-.16.44-.1.31-.05.32,0a2.19,2.19,0,0,1,.36,0l.52,0c3.58,0,8.09,2.1,11.73,5.74,5.35,5.34,7.32,12.63,4.33,15.91l-1.6,1.77,1.58,1.58.19.19.11.11,1.6,1.6,1.76-1.6c3.29-3,10.58-1,15.92,4.32,3.83,3.83,5.92,8.66,5.7,12.3a1.94,1.94,0,0,1,0,.24,3,3,0,0,1-.05.43c0,.16-.05.31-.08.46a2,2,0,0,1-.09.35,3.06,3.06,0,0,1-.13.43,5.36,5.36,0,0,1-.65,1.26,3.94,3.94,0,0,1-.36.45l-1.61,1.8,2.8,2.72.69.67,3.54-3.53,146.09-146,13.05-13.05,6-6a23.1,23.1,0,0,0,6.82-16.47A23.12,23.12,0,0,0,393.73-523.17Zm-3.53,29.4-9.55,9.54-6,6-3.53,3.52L229.4-333c0-.19-.05-.39-.09-.58a2.17,2.17,0,0,0,0-.25,17.72,17.72,0,0,0-.43-1.82c0-.11-.06-.21-.1-.32s-.13-.42-.2-.63l-.09-.26c-.09-.25-.18-.5-.29-.75a.47.47,0,0,0-.06-.15c-.12-.29-.25-.6-.39-.89,0,0,0,0,0,0q-.15-.35-.33-.69a24.46,24.46,0,0,0-2.4-3.85c-.16-.23-.33-.44-.51-.66-.39-.49-.8-1-1.24-1.45-.27-.3-.55-.6-.84-.89a25.6,25.6,0,0,0-9.51-6.12,20.88,20.88,0,0,0-2.93-.78,7.49,7.49,0,0,0-.79-.11,13.77,13.77,0,0,0-3.56-.07,14.46,14.46,0,0,0,0-3.41,23.69,23.69,0,0,0-7-13.38c-.29-.29-.59-.57-.89-.85s-.52-.47-.78-.69-.8-.67-1.21-1q-.37-.3-.78-.57l-.6-.41c-.15-.11-.31-.21-.47-.31a22.3,22.3,0,0,0-2.86-1.56l-.87-.39-.63-.25-.63-.22-.84-.27c-.28-.08-.56-.16-.83-.22l-.57-.13c-.36-.08-.71-.14-1.07-.19L327.09-518.75l3.54-3.53,6-6,3.53-3.54,6-6a18.17,18.17,0,0,1,5.94-4,18.18,18.18,0,0,1,7-1.39A18.21,18.21,0,0,1,372-537.81l18.17,18.17a18.15,18.15,0,0,1,5.36,12.93A18.19,18.19,0,0,1,390.2-493.77Z" transform="translate(1134.16 590.54)"/><path class="cls-2" d="M384.18-487.76l-44.05-44-3.53-3.52-13,13,3.53,3.53,20.25,20.25,3.54,3.54,20.26,20.24,3.53,3.54,13.05-13.05Zm-9.51,9.52-22-22,0,0,0,0-22-22,6-6,44,44Z" transform="translate(1134.16 590.54)"/><path class="cls-2" d="M201.23-346.39a2.49,2.49,0,0,1-1.77-.73,2.49,2.49,0,0,1,0-3.53L349.11-500.26a2.49,2.49,0,0,1,3.53,0,2.49,2.49,0,0,1,0,3.53L203-347.12A2.47,2.47,0,0,1,201.23-346.39Z" transform="translate(1134.16 590.54)"/><path class="cls-2" d="M201.13-346.49a2.5,2.5,0,0,1-1.68-.65,2.49,2.49,0,0,1-.17-3.53c3-3.29,1-10.58-4.33-15.92-5.07-5.07-11.83-7.15-15.39-4.73a2.5,2.5,0,0,1-3.47-.66,2.49,2.49,0,0,1,.66-3.47c5.66-3.85,14.8-1.61,21.73,5.33,7.42,7.41,9.39,17.43,4.5,22.81A2.51,2.51,0,0,1,201.13-346.49Z" transform="translate(1134.16 590.54)"/><path class="cls-2" d="M228.58-325.13l-.32-.3a12.81,12.81,0,0,0,1.05-8.17,2.17,2.17,0,0,0,0-.25c-.11-.6-.26-1.21-.43-1.82,0-.11-.06-.21-.1-.32s-.13-.42-.2-.63l-.09-.26c-.09-.25-.18-.5-.29-.75a.47.47,0,0,0-.06-.15c-.12-.29-.25-.6-.39-.89,0,0,0,0,0,0q-.15-.35-.33-.69a24.46,24.46,0,0,0-2.4-3.85c-.16-.23-.33-.44-.51-.66-.39-.49-.8-1-1.24-1.45-.27-.3-.55-.6-.84-.89a25.6,25.6,0,0,0-9.51-6.12,20.88,20.88,0,0,0-2.93-.78,7.49,7.49,0,0,0-.79-.11,13.77,13.77,0,0,0-3.56-.07,14.46,14.46,0,0,0,0-3.41,23.69,23.69,0,0,0-7-13.38c-.29-.29-.59-.57-.89-.85s-.52-.47-.78-.69-.8-.67-1.21-1q-.37-.3-.78-.57l-.6-.41c-.15-.11-.31-.21-.47-.31a22.3,22.3,0,0,0-2.86-1.56l-.87-.39-.63-.25-.63-.22-.84-.27c-.28-.08-.56-.16-.83-.22l-.57-.13c-.36-.08-.71-.14-1.07-.19a12.08,12.08,0,0,0-8.71,1.7l-.19.13-.51.35-.23.71-13,39.31v0s0,0,0,0l-12,36.44,36.53-11.82,37-12,1.44-.46.56-.18,3.38-1.11Zm-4.06-5c0,.15,0,.29-.05.43s-.05.31-.08.46l-.09.35c0,.15-.08.29-.13.43a5.36,5.36,0,0,1-.65,1.26l-35.44,11.46-4.76,1.54-24.7,8,8.14-24.65,1.57-4.76,11.89-36v0a4.35,4.35,0,0,1,.54-.22l.5-.16.44-.1.31-.05.32,0a2.19,2.19,0,0,1,.36,0l.52,0c3.58,0,8.09,2.1,11.73,5.74,5.35,5.34,7.32,12.63,4.33,15.91l-1.6,1.77,1.58,1.58.19.19.11.11,1.6,1.6,1.76-1.6c3.29-3,10.58-1,15.92,4.32,3.83,3.83,5.92,8.66,5.7,12.3A1.94,1.94,0,0,1,224.52-330.17Z" transform="translate(1134.16 590.54)"/><path class="cls-2" d="M186.56-310.16a2.5,2.5,0,0,1-2.38-1.74,30.54,30.54,0,0,0-7.56-12.37,31,31,0,0,0-12.2-7.51,2.5,2.5,0,0,1-1.6-3.15,2.51,2.51,0,0,1,3.16-1.6,36.05,36.05,0,0,1,14.17,8.73,35.41,35.41,0,0,1,8.79,14.38,2.5,2.5,0,0,1-1.62,3.14A2.51,2.51,0,0,1,186.56-310.16Z" transform="translate(1134.16 590.54)"/><path class="cls-2" d="M42.2-87.83a5.39,5.39,0,0,1-1-.09S36.54-88.83,28.17-90a5,5,0,0,1-4.25-5.65,5,5,0,0,1,5.65-4.25c8.66,1.22,13.39,2.14,13.58,2.18a5,5,0,0,1,4,5.86A5,5,0,0,1,42.2-87.83Z" transform="translate(1134.16 590.54)"/><path class="cls-2" d="M-49.69-105.83c-8.78-.15-17.68-.15-26.49,0a5,5,0,0,0-4.91,5.08,5,5,0,0,0,5,4.91H-76c8.69-.16,17.47-.16,26.14,0a5,5,0,0,0,5.08-4.91A5,5,0,0,0-49.69-105.83Zm-53,1c-8.8.47-17.7,1.1-26.42,1.88a5,5,0,0,0-4.54,5.42,5,5,0,0,0,5,4.55,3.39,3.39,0,0,0,.45,0c8.61-.77,17.38-1.39,26.06-1.86a5,5,0,0,0,4.73-5.25A5,5,0,0,0-102.66-104.88ZM3.21-102.95c-8.6-.8-17.5-1.45-26.43-1.93a5,5,0,0,0-5.26,4.71,5,5,0,0,0,4.73,5.26c8.79.48,17.56,1.12,26,1.91l.47,0a5,5,0,0,0,5-4.54A5,5,0,0,0,3.21-102.95Zm-153,7.11a5,5,0,0,0-5.59-4.33c-8.77,1.11-17.59,2.39-26.23,3.82a5,5,0,0,0-4.12,5.74,5,5,0,0,0,4.93,4.18,4.62,4.62,0,0,0,.82-.07c8.51-1.4,17.2-2.66,25.85-3.75A5,5,0,0,0-149.84-95.84Zm-52,8.18a5,5,0,0,0-5.9-3.88c-8.66,1.77-17.36,3.73-25.86,5.82a5,5,0,0,0-3.64,6.06,5,5,0,0,0,4.84,3.8,5,5,0,0,0,1.2-.15c8.36-2.06,16.94-4,25.47-5.75A5,5,0,0,0-201.83-87.66ZM-253-75.43a5,5,0,0,0-6.19-3.4c-8.49,2.47-17,5.13-25.3,7.94a5,5,0,0,0-3.14,6.34,5,5,0,0,0,4.74,3.4,5,5,0,0,0,1.6-.27c8.16-2.76,16.54-5.39,24.9-7.82A5,5,0,0,0-253-75.43ZM-303-59a5,5,0,0,0-6.47-2.85c-8.26,3.19-16.5,6.61-24.51,10.14a5,5,0,0,0-2.56,6.58,5,5,0,0,0,4.58,3,5,5,0,0,0,2-.43c7.88-3.47,16-6.82,24.1-10A5,5,0,0,0-303-59Zm-48.31,20.8a5,5,0,0,0-6.7-2.25c-7.91,3.93-15.81,8.09-23.47,12.37a5,5,0,0,0-1.93,6.8A5,5,0,0,0-379-18.72a5,5,0,0,0,2.43-.64c7.53-4.19,15.28-8.28,23.05-12.15A5,5,0,0,0-351.27-38.2ZM-397.41-13a5,5,0,0,0-6.89-1.6C-411.77-9.93-419.24-5-426.47,0a5,5,0,0,0-1.26,7,5,5,0,0,0,4.11,2.14,5.06,5.06,0,0,0,2.85-.88c7.1-4.92,14.41-9.74,21.76-14.31A5,5,0,0,0-397.41-13Zm-43.48,29.55a5,5,0,0,0-7-.91c-7,5.37-13.91,11-20.63,16.69a5,5,0,0,0-.57,7,5,5,0,0,0,3.81,1.76,5,5,0,0,0,3.24-1.2c6.59-5.59,13.4-11.11,20.25-16.38A5,5,0,0,0-440.89,16.55Zm-40.35,33.67a5,5,0,0,0-7.07-.22c-6.42,6-12.76,12.3-18.89,18.63a5,5,0,0,0,.12,7.07,5,5,0,0,0,3.47,1.4,5,5,0,0,0,3.6-1.52c6-6.23,12.25-12.37,18.55-18.29A5,5,0,0,0-481.24,50.22Zm-36.87,37.46a5,5,0,0,0-7.06.46c-5.78,6.58-11.51,13.43-17,20.33a5,5,0,0,0,.79,7,5,5,0,0,0,3.1,1.09,5,5,0,0,0,3.91-1.88c5.42-6.79,11-13.51,16.74-20A5,5,0,0,0-518.11,87.68Z" transform="translate(1134.16 590.54)"/><path class="cls-2" d="M-562,148.54a5,5,0,0,1-2.84-.89,5,5,0,0,1-1.26-7c2.56-3.7,5.21-7.44,7.87-11.1a5,5,0,0,1,7-1.11,5,5,0,0,1,1.1,7c-2.61,3.6-5.21,7.27-7.73,10.92A5,5,0,0,1-562,148.54Z" transform="translate(1134.16 590.54)"/><path class="cls-2" d="M-183.43,835.62a5.62,5.62,0,0,1-.7,0c-8.66-1.22-13.38-2.14-13.58-2.18a5,5,0,0,1-3.95-5.86,5,5,0,0,1,5.87-3.95s4.69.91,13.06,2.09a5,5,0,0,1,4.25,5.65A5,5,0,0,1-183.43,835.62Z" transform="translate(1134.16 590.54)"/><path class="cls-2" d="M386.85,620.16a5,5,0,0,0-7,.79c-5.41,6.79-11,13.51-16.72,20a5,5,0,0,0,7.51,6.59c5.78-6.58,11.51-13.43,17-20.33A5,5,0,0,0,386.85,620.16ZM352.52,660a5,5,0,0,0-7.07.12c-6,6.23-12.25,12.38-18.54,18.29a5,5,0,0,0,6.84,7.29c6.41-6,12.77-12.29,18.9-18.63A5,5,0,0,0,352.52,660Zm-38,36.33a5,5,0,0,0-7-.56c-6.59,5.6-13.4,11.11-20.24,16.38a5,5,0,1,0,6.08,7.91c7-5.36,13.93-11,20.64-16.69A5,5,0,0,0,314.53,696.29Zm-41.36,32.44a5,5,0,0,0-6.95-1.26c-7.1,4.91-14.43,9.73-21.77,14.31a5,5,0,0,0,5.28,8.48c7.49-4.67,15-9.57,22.18-14.58A5,5,0,0,0,273.17,728.73ZM228.81,757A5,5,0,0,0,222,755c-7.53,4.19-15.29,8.28-23,12.15a5,5,0,0,0,2.22,9.47,4.9,4.9,0,0,0,2.22-.53c7.92-3.93,15.82-8.09,23.48-12.37A5,5,0,0,0,228.81,757Zm-46.87,23.84a5,5,0,0,0-6.59-2.56c-7.87,3.47-16,6.82-24.09,10a5,5,0,0,0,1.81,9.67,5,5,0,0,0,1.8-.34c8.25-3.2,16.5-6.62,24.51-10.15A5,5,0,0,0,181.94,780.79Zm-48.87,19.42a5,5,0,0,0-6.34-3.12c-8.16,2.75-16.53,5.38-24.89,7.81a5,5,0,0,0,1.39,9.79,4.79,4.79,0,0,0,1.4-.2c8.5-2.46,17-5.14,25.31-7.94A5,5,0,0,0,133.07,800.21ZM82.68,815.32a5,5,0,0,0-6.05-3.64c-8.36,2.05-16.93,4-25.47,5.73a5,5,0,0,0,1,9.89,4.94,4.94,0,0,0,1-.1c8.67-1.76,17.37-3.73,25.86-5.82A5,5,0,0,0,82.68,815.32ZM31.21,826.27a5,5,0,0,0-5.73-4.11c-8.52,1.4-17.22,2.67-25.86,3.76a5,5,0,0,0-4.33,5.57,5,5,0,0,0,5,4.38,4.68,4.68,0,0,0,.64,0c8.75-1.11,17.58-2.39,26.21-3.82A5,5,0,0,0,31.21,826.27Zm-57.57,2.44c-8.62.77-17.38,1.39-26.08,1.86a5,5,0,0,0-4.72,5.25,5,5,0,0,0,5,4.73h.27c8.81-.47,17.7-1.09,26.43-1.87a5,5,0,0,0,4.53-5.43A5,5,0,0,0-26.36,828.71Zm-104.44,1.86c-8.81-.48-17.56-1.12-26-1.91a5,5,0,0,0-5.44,4.52,5,5,0,0,0,4.51,5.44c8.61.8,17.49,1.44,26.43,1.92h.27a5,5,0,0,0,5-4.72A5,5,0,0,0-130.8,830.57Zm52.24.92c-4.38.08-8.82.12-13.2.12h0c-4.29,0-8.62,0-12.89-.11a5,5,0,0,0-5.09,4.91,5,5,0,0,0,4.91,5.08c4.33.07,8.73.11,13.07.11h0c4.44,0,8.94,0,13.37-.12a5,5,0,0,0,4.92-5.08A5,5,0,0,0-78.56,831.49Z" transform="translate(1134.16 590.54)"/><path class="cls-2" d="M399.68,608.12a5,5,0,0,1-4-7.93c2.61-3.6,5.22-7.27,7.74-10.91a5,5,0,1,1,8.21,5.68c-2.56,3.7-5.21,7.44-7.87,11.1A5,5,0,0,1,399.68,608.12Z" transform="translate(1134.16 590.54)"/><rect class="cls-2" x="374.55" y="1092.89" width="5" height="61.14" transform="translate(450.12 1186.35) rotate(-45.01)"/><rect class="cls-2" x="483.53" y="983.93" width="5" height="61.14" transform="translate(559.11 1231.51) rotate(-45.01)"/><rect class="cls-2" x="508.75" y="958.72" width="5" height="61.14" transform="translate(584.33 1241.94) rotate(-45.01)"/><rect class="cls-2" x="517.76" y="949.71" width="5" height="61.14" transform="translate(593.34 1245.67) rotate(-45.01)"/><path class="cls-2" d="M570,930.53a10.49,10.49,0,0,0-14.81,0l-7.07,7.07-42.62,10.66L343.31,1110.43a23.18,23.18,0,0,0,0,32.76l14,14a23.21,23.21,0,0,0,32.77,0L551.8,995.5l.49-.49L563,952.39l7.08-7.06A10.5,10.5,0,0,0,570,930.53Zm-3.54,11.26-8,8.06-10.66,42.6-5.9,5.9-3.54,3.54-5.47,5.47-3.54,3.53-21.69,21.69-3.52,3.52L398.66,1141.54l-3.53,3.52-8.59,8.59a18.2,18.2,0,0,1-25.7,0l-14-14a18.19,18.19,0,0,1,0-25.69l8.58-8.59,3.54-3.52L464.41,996.41l3.53-3.53,21.69-21.68,3.54-3.53,5.47-5.47,3.54-3.54,5.89-5.9,42.63-10.65,8-8a5.48,5.48,0,0,1,7.74,0,5.46,5.46,0,0,1,0,7.72Z" transform="translate(1134.16 590.54)"/><path class="cls-2" d="M477.31,1023.22c-9.55-9.55-38.44,9-60.77,31.35s-40.93,51.21-31.37,60.76a9.63,9.63,0,0,0,7.11,2.56c6.43,0,15.31-3.92,24.84-10.13A186.13,186.13,0,0,0,445.94,1084C468.28,1061.65,486.86,1032.77,477.31,1023.22Zm-34.9,57.22c-22.12,22.13-41.66,32.49-50.12,32.49a4.93,4.93,0,0,1-3.58-1.13c-4.67-4.67,5-27.35,31.35-53.69,22.13-22.13,41.67-32.49,50.13-32.49a4.07,4.07,0,0,1,4.72,4.71C474.91,1038.79,464.53,1058.33,442.41,1080.44Z" transform="translate(1134.16 590.54)"/><rect class="cls-2" x="-327.22" y="-260.36" width="5" height="58.34" transform="translate(1187.85 234.07) rotate(-53.77)"/><rect class="cls-2" x="-240.28" y="-378.94" width="5" height="58.34" transform="translate(1319.06 255.7) rotate(-53.77)"/><rect class="cls-2" x="-220.17" y="-406.38" width="5" height="58.33" transform="translate(1349.42 260.71) rotate(-53.77)"/><rect class="cls-2" x="-212.98" y="-416.18" width="5" height="58.34" transform="translate(1360.27 262.49) rotate(-53.77)"/><path class="cls-2" d="M-170.72-441.25a10.11,10.11,0,0,0-14.12,2.18l-5.63,7.66-38.64,16.24L-358.53-238.65a22.1,22.1,0,0,0-4,16.52,22.08,22.08,0,0,0,8.83,14.54l15.24,11.16a22,22,0,0,0,13.09,4.31,22.25,22.25,0,0,0,3.44-.27,22.1,22.1,0,0,0,14.53-8.82l129-176,.41-.56,3.85-41.73,5.62-7.67A10.11,10.11,0,0,0-170.72-441.25Zm-1.85,11.16L-179-421.3l-3.85,41.73-4.63,6.3-2.95,4-4.23,5.76-2.95,4L-214.79-336l-3,4-84,114.56-3,4-6.78,9.25a17.12,17.12,0,0,1-11.27,6.83,17.18,17.18,0,0,1-12.81-3.12l-15.24-11.18a17.06,17.06,0,0,1-6.84-11.26,17.11,17.11,0,0,1,3.13-12.8l6.78-9.24,3-4,84-114.55,3-4L-240.65-391l3-4,4.22-5.77,3-4,4.62-6.29,38.65-16.25,6.44-8.78a5.12,5.12,0,0,1,7.14-1.1A5.11,5.11,0,0,1-172.57-430.09Z" transform="translate(1134.16 590.54)"/><path class="cls-2" d="M-244.68-340.37c-10.45-7.67-35.06,14.08-52.92,38.42-9.57,13.06-17.1,26.46-21.19,37.72-4.49,12.37-4.32,20.77.48,24.28a8.42,8.42,0,0,0,5.13,1.57c12.05,0,32.42-19,47.79-40C-247.55-302.7-234.22-332.71-244.68-340.37Zm-24.75,59.05c-18.57,25.35-36.31,38-43.63,38a3.84,3.84,0,0,1-2.3-.64c-2.09-1.53-2.85-7.21,1.27-18.55,3.93-10.83,11.23-23.79,20.53-36.48,18.57-25.33,36.32-38,43.63-38a3.84,3.84,0,0,1,2.3.63C-242.59-332.65-248.45-309.94-269.43-281.32Z" transform="translate(1134.16 590.54)"/><path class="cls-2" d="M137.64-588.09,80.22-427.82,65.73-387.38,13.29-406.16-95.88-445.25-44.7-588.09H-50L-101.39-444.7c0,.1-.08.21-.11.31l-.78,2.16,1.46.52,7.11,2.55L5.66-403.57l59.85,21.43L68.76-381,70-384.39,86.2-429.67,143-588.09Z" transform="translate(1134.16 590.54)"/><path class="cls-2" d="M76.41-588.09H61.59L94.23-576.4l-20,55.81-92.09-33,12.36-34.51H-10.8l-13.44,37.53,101.5,36.35,23.37-65.21Z" transform="translate(1134.16 590.54)"/><path class="cls-2" d="M15-588,5.64-562l55.78,20,9.31-26ZM58.4-548.38,12-565l6-16.61L64.35-565Z" transform="translate(1134.16 590.54)"/><path class="cls-2" d="M164.28-584.32,111.64-437.4,83.39-358.57c0,.11-.07.21-.11.32l-.8,2.22-2.16-.78a2.3,2.3,0,0,1-.34-.12L-22.8-393.73l-64.28-23-13.74-25-.45-.82a2.49,2.49,0,0,1-.23-1.86c0-.1.07-.21.11-.31a2.51,2.51,0,0,1,1.1-1.23,2.5,2.5,0,0,1,3.4,1l3.18,5.78,10.1,18.34,68.29,24.47L75.6-363.8l3.86,1.38,1-2.87,25.2-70.32,53.12-148.28-2.3-4.2h5.69Z" transform="translate(1134.16 590.54)"/><path class="cls-2" d="M81-356.72a2.5,2.5,0,0,1-2.19-1.3L65.05-383a2.5,2.5,0,0,1,1-3.39,2.49,2.49,0,0,1,3.39,1l13.73,25a2.5,2.5,0,0,1-1,3.4A2.53,2.53,0,0,1,81-356.72Z" transform="translate(1134.16 590.54)"/><path class="cls-2" d="M116.6-487.79a2.62,2.62,0,0,1-.82-.14,2.5,2.5,0,0,1-1.55-3.17L140-565.81a2.5,2.5,0,0,1,3.18-1.54,2.49,2.49,0,0,1,1.55,3.17L119-489.48A2.5,2.5,0,0,1,116.6-487.79Z" transform="translate(1134.16 590.54)"/><path class="cls-2" d="M3.93-394.94a2.53,2.53,0,0,1-.85-.14l-73.84-26.58a2.5,2.5,0,0,1-1.51-3.2,2.5,2.5,0,0,1,3.2-1.5L4.77-399.79a2.5,2.5,0,0,1,1.51,3.2A2.5,2.5,0,0,1,3.93-394.94Z" transform="translate(1134.16 590.54)"/><path class="cls-2" d="M60.89-374.26a2.56,2.56,0,0,1-.81-.14L27.16-385.79A2.5,2.5,0,0,1,25.62-389a2.5,2.5,0,0,1,3.18-1.54l32.91,11.39a2.49,2.49,0,0,1,1.55,3.17A2.51,2.51,0,0,1,60.89-374.26Z" transform="translate(1134.16 590.54)"/><path class="cls-2" d="M598-246.73,572.09-272.6,522.6-322.09,496.72-348c-6.38-6.37-16.44-6.68-22.44-.69L339.78-214.18c-6,6-5.69,16.05.69,22.43L441.72-90.52c6.38,6.38,16.45,6.69,22.44.7L598.67-224.3C604.67-230.29,604.35-240.36,598-246.73Zm-1.87,19.86L461.6-92.39c-4.58,4.57-12.35,4.26-17.31-.69L343-194.32c-5-5-5.28-12.72-.7-17.3L476.85-346.08c4.58-4.59,12.34-4.28,17.3.69L569.53-270l25.87,25.87C600.37-239.21,600.68-231.44,596.1-226.87Z" transform="translate(1134.16 590.54)"/><path class="cls-2" d="M587.47-246.74l-90.74-90.72c-5.79-5.78-15-6-20.6-.39L352.44-214.18c-5.58,5.57-5.4,14.8.39,20.59l90.73,90.72c5.79,5.78,15,6,20.6.4l123.7-123.67C593.43-231.71,593.25-241,587.47-246.74Zm-2.18,18L461.6-105a11,11,0,0,1-15.47-.4l-90.74-90.71a11,11,0,0,1-.39-15.47L478.7-335.28c4.15-4.15,11.09-4,15.46.39l90.74,90.72C589.27-239.8,589.45-232.86,585.29-228.7Z" transform="translate(1134.16 590.54)"/><path class="cls-2" d="M489.35-330.57,453-294.26l36.32,36.31,36.32-36.31Zm-31.18,36.31,31.18-31.17,31.19,31.17-31.19,31.17Z" transform="translate(1134.16 590.54)"/><path class="cls-2" d="M535.26-284.66l-17.6,17.59,49.24,49.24,17.61-17.61Zm-12.47,17.59,12.47-12.47,44.11,44.1L566.9-223Z" transform="translate(1134.16 590.54)"/><path class="cls-2" d="M549-202.47l-46.68-46.66a1.82,1.82,0,0,1,0-2.57,1.84,1.84,0,0,1,2.57,0L551.52-205a1.82,1.82,0,0,1,0,2.57A1.8,1.8,0,0,1,549-202.47Z" transform="translate(1134.16 590.54)"/><path class="cls-2" d="M529.48-185.74,436-279.19a1.82,1.82,0,0,1,0-2.57,1.82,1.82,0,0,1,2.57,0L532-188.31a1.82,1.82,0,0,1,0,2.57A1.8,1.8,0,0,1,529.48-185.74Z" transform="translate(1134.16 590.54)"/><path class="cls-2" d="M511.27-167.54,417.8-261a1.82,1.82,0,0,1,0-2.57,1.82,1.82,0,0,1,2.57,0l93.47,93.45a1.82,1.82,0,0,1,0,2.57A1.82,1.82,0,0,1,511.27-167.54Z" transform="translate(1134.16 590.54)"/><path class="cls-2" d="M493.07-149.35,399.6-242.8a1.82,1.82,0,0,1,0-2.57,1.82,1.82,0,0,1,2.56,0l93.48,93.46a1.8,1.8,0,0,1,0,2.56A1.82,1.82,0,0,1,493.07-149.35Z" transform="translate(1134.16 590.54)"/><path class="cls-2" d="M474.87-131.15,381.39-224.6a1.82,1.82,0,0,1,0-2.57,1.82,1.82,0,0,1,2.57,0l93.48,93.45a1.82,1.82,0,0,1,0,2.57A1.82,1.82,0,0,1,474.87-131.15Z" transform="translate(1134.16 590.54)"/><path class="cls-2" d="M456.67-112.95,363.19-206.4a1.82,1.82,0,0,1,0-2.57,1.82,1.82,0,0,1,2.57,0l93.48,93.45a1.82,1.82,0,0,1,0,2.57A1.82,1.82,0,0,1,456.67-112.95Z" transform="translate(1134.16 590.54)"/><path class="cls-2" d="M556-209.51l-46.68-46.66a1.8,1.8,0,0,1,0-2.56,1.82,1.82,0,0,1,2.57,0l46.67,46.66a1.8,1.8,0,0,1,0,2.56A1.8,1.8,0,0,1,556-209.51Z" transform="translate(1134.16 590.54)"/><path class="cls-2" d="M575.25-286.66,567-294.9l-2.59-2.58-16.94-16.94L544.91-317l-8.24-8.23a7.74,7.74,0,0,0-10.91,0l-3.16,3.15L520-319.52,569.53-270l5.72-5.73A7.71,7.71,0,0,0,575.25-286.66Zm-2.57,8.33-3.15,3.16-44.36-44.35,3.15-3.16a4.1,4.1,0,0,1,5.78,0l8.16,8.17,30.42,30.42A4.07,4.07,0,0,1,572.68-278.33Z" transform="translate(1134.16 590.54)"/><path class="cls-2" d="M565.81-315.8a15.76,15.76,0,0,0-20.9-1.21,15.3,15.3,0,0,0-1.36,1.21l-1.29,1.29,22.26,22.25,1.29-1.28A15.3,15.3,0,0,0,567-294.9,15.78,15.78,0,0,0,565.81-315.8Zm-18.32,1.38a12.13,12.13,0,0,1,15.75,1.19,12.13,12.13,0,0,1,1.19,15.75Z" transform="translate(1134.16 590.54)"/><path class="cls-2" d="M693.87,101.83,608-83.72a17.93,17.93,0,0,0-10.18-9.37,17.91,17.91,0,0,0-13.82.56l-123.05,57,0,0a17.93,17.93,0,0,0-9.17,9.73.14.14,0,0,0,0,.06c-.1.24-.19.49-.27.74a14.41,14.41,0,0,0-.43,1.46c0,.15-.08.3-.11.45a18,18,0,0,0,.21,8.71,18.86,18.86,0,0,0,1,2.8L538,174a18.13,18.13,0,0,0,17.38,10.46,15.65,15.65,0,0,0,1.92-.21,16.49,16.49,0,0,0,1.92-.42,18.87,18.87,0,0,0,2.77-1l114.58-53,8.49-3.94.76-.38.73-.4,0,0c.46-.28.91-.57,1.34-.87l0,0a18.08,18.08,0,0,0,5.88-22.27Zm-3.57,10a4,4,0,0,1-.1.5,2.22,2.22,0,0,1-.09.37c0,.16-.08.32-.13.48a13.9,13.9,0,0,1-.92,2.26c-.11.22-.23.43-.35.63a.05.05,0,0,0,0,0c-.13.22-.27.43-.42.64a3.9,3.9,0,0,1-.46.63,13.81,13.81,0,0,1-2.74,2.66.51.51,0,0,0-.13.09l-.59.38c-.21.13-.42.26-.63.37s-.5.27-.76.39l-123.06,57a13.41,13.41,0,0,1-2.7.91,12.94,12.94,0,0,1-7.3-.51,14,14,0,0,1-2.86-1.46c-.35-.24-.69-.5-1-.77a13,13,0,0,1-3.49-4.54L456.62-13.69a11.65,11.65,0,0,1-.53-1.34,13,13,0,0,1,.12-8.62,14,14,0,0,1,.74-1.68,12.71,12.71,0,0,1,.87-1.41,14.27,14.27,0,0,1,1.32-1.59,14.19,14.19,0,0,1,1.35-1.21c.3-.22.6-.43.91-.63s.48-.3.73-.44.53-.29.81-.42l.05,0L586.05-88a13,13,0,0,1,5.49-1.21,13.1,13.1,0,0,1,4.51.81,13,13,0,0,1,7.36,6.78l85.92,185.55a13,13,0,0,1,1,7.78Z" transform="translate(1134.16 590.54)"/><path class="cls-2" d="M690.33,111.71l0,.13c0,.17-.06.34-.1.5l-.09.37c0,.16-.09.32-.13.48a13.9,13.9,0,0,1-.92,2.26c-.11.21-.23.42-.35.63a.05.05,0,0,0,0,0l-.42.64c-.15.22-.3.43-.46.63a12.86,12.86,0,0,1-1.58,1.71,13,13,0,0,1-1.16,1,.51.51,0,0,0-.13.09l-.59.38a6.5,6.5,0,0,1-.63.37c-.25.14-.5.27-.76.39l-123.06,57a13.41,13.41,0,0,1-2.7.91,12.93,12.93,0,0,1-7.3-.5,13.11,13.11,0,0,1-2.86-1.47c-.35-.24-.69-.5-1-.77a13,13,0,0,1-3.49-4.54L456.63-13.69c-.2-.44-.38-.89-.54-1.34a13.05,13.05,0,0,1,.12-8.62,14,14,0,0,1,.74-1.68,12.71,12.71,0,0,1,.87-1.41,14.27,14.27,0,0,1,1.32-1.59,14.19,14.19,0,0,1,1.35-1.21c.3-.22.6-.43.91-.63s.48-.3.73-.44.53-.29.81-.42l-2.09-4.51v0l-12.11,5.61a18.11,18.11,0,0,0-8.8,24l90.38,195.18a18.05,18.05,0,0,0,24,8.82l123.05-57c11.59-5.37,17.95-15.55,17.93-28.71v-.24Zm-15.07,24.83-123,57a13.07,13.07,0,0,1-17.36-6.37L444.45-8.06a13.1,13.1,0,0,1,6.38-17.35l.85-.4a.14.14,0,0,0,0,.06c-.1.24-.19.49-.27.74a14.41,14.41,0,0,0-.43,1.46c0,.15-.08.3-.11.45a18,18,0,0,0,.21,8.71,17.85,17.85,0,0,0,1,2.8L538,174a18.13,18.13,0,0,0,17.38,10.46,15.65,15.65,0,0,0,1.92-.21,16.49,16.49,0,0,0,1.92-.42,17.74,17.74,0,0,0,2.77-1l114.58-53,8.49-3.94.76-.38.73-.4,0,0c.46-.28.91-.57,1.34-.87l0,0C685.88,128.87,682,133.41,675.26,136.54Z" transform="translate(1134.16 590.54)"/><path class="cls-2" d="M548.08,44.24l-27,12.51,12.5,27,27-12.51ZM527.69,59.19l18-8.32L554,68.82l-18,8.32Z" transform="translate(1134.16 590.54)"/><path class="cls-2" d="M562.24,74.83l-27,12.51,12.52,27,27-12.5ZM541.85,89.77l17.95-8.31,8.32,18-18,8.3Z" transform="translate(1134.16 590.54)"/><path class="cls-2" d="M576,104.58l-27,12.51,12.5,27,27-12.5Zm-20.38,14.93,18-8.3,8.31,18-17.95,8.31Z" transform="translate(1134.16 590.54)"/><path class="cls-2" d="M585.18,27.58l-27,12.5,12.52,27,27-12.51ZM564.79,42.52l18-8.31,8.32,17.95-18,8.31Z" transform="translate(1134.16 590.54)"/><path class="cls-2" d="M597.57-63.64l-120.91,56,22.62,48.85,120.91-56ZM483.3-5.25,595.13-57l18.43,39.79L501.72,34.54Z" transform="translate(1134.16 590.54)"/><path class="cls-2" d="M582.67-27.08a8.67,8.67,0,0,0-4.93-4.54,8.65,8.65,0,0,0-6.68.27L518.45-7a8.76,8.76,0,0,0-4.27,11.61,8.76,8.76,0,0,0,8,5.06,8.68,8.68,0,0,0,3.66-.81l52.6-24.35a8.66,8.66,0,0,0,4.54-4.91A8.68,8.68,0,0,0,582.67-27.08Zm-4.42,5A3.76,3.76,0,0,1,576.31-20L523.7,4.34a3.76,3.76,0,0,1-5-1.82,3.75,3.75,0,0,1,1.83-5l52.6-24.35a3.79,3.79,0,0,1,1.58-.35,3.86,3.86,0,0,1,1.29.23A3.74,3.74,0,0,1,578.13-25,3.71,3.71,0,0,1,578.25-22.11Z" transform="translate(1134.16 590.54)"/><path class="cls-2" d="M599.34,58.16l-27,12.51,12.52,27,27-12.51ZM579,73.11l17.95-8.32,8.32,17.95-18,8.32Z" transform="translate(1134.16 590.54)"/><path class="cls-2" d="M613.12,87.91l-27,12.51,12.51,27,27-12.51Zm-20.39,15,17.95-8.32L619,112.49l-18,8.31Z" transform="translate(1134.16 590.54)"/><path class="cls-2" d="M623,10.56l-27,12.5,12.52,27,27-12.51ZM602.65,25.5l18-8.31,8.32,18L611,43.45Z" transform="translate(1134.16 590.54)"/><path class="cls-2" d="M637.2,41.14l-27,12.51,26.29,56.77,27-12.51ZM616.81,56.08l18-8.3,22.09,47.69-18,8.32Z" transform="translate(1134.16 590.54)"/><path class="cls-2" d="M-544.42,749.35a1.87,1.87,0,0,0-.07-.22,16.41,16.41,0,0,0-8.52-9.27l0,0-110.72-51.25a16.54,16.54,0,0,0-21.92,8l-77.3,167a16.4,16.4,0,0,0-1.3,9.74,16.72,16.72,0,0,0,.78,2.89,16.33,16.33,0,0,0,6.64,8.23c.25.16.5.31.76.45l.42.23.73.37,110.73,51.24c.28.14.55.25.84.37s.57.21.86.31.57.18.86.26c.57.16,1.15.28,1.72.38.29.05.59.09.89.12a16.9,16.9,0,0,0,1.74.09h.58a17,17,0,0,0,6.18-1.42,16.49,16.49,0,0,0,5.58-4.07l0,0c.23-.26.46-.52.67-.8a1.88,1.88,0,0,0,.18-.24c.21-.28.41-.56.61-.85h0c.2-.31.4-.63.58-1s.42-.78.61-1.18l77.31-167a15.07,15.07,0,0,0,.67-1.68h0A16.26,16.26,0,0,0-544.42,749.35ZM-626.85,926.6c-.12.26-.25.52-.39.77s-.29.49-.44.72c0,0,0,0,0,0-.16.23-.32.46-.49.68a11.39,11.39,0,0,1-.92,1l-.26.27c-.3.28-.61.54-.93.79l-.4.3c-.33.22-.66.44-1,.63l-.41.21a11.22,11.22,0,0,1-1.17.52c-.28.11-.56.2-.85.29a12.36,12.36,0,0,1-1.58.34,11.76,11.76,0,0,1-4-.15h0a12.29,12.29,0,0,1-2.37-.81L-752.86,881l-.63-.32a9,9,0,0,1-1.18-.74,11.37,11.37,0,0,1-4.16-5.43,12.24,12.24,0,0,1-.53-2,11.41,11.41,0,0,1,.89-6.85l77.31-167a11.52,11.52,0,0,1,15.28-5.61l110.72,51.24.46.22.08,0,.47.27a6.66,6.66,0,0,1,.86.56,9.38,9.38,0,0,1,1.37,1.15c.13.12.25.25.37.38a11.12,11.12,0,0,1,1.41,1.88,5.54,5.54,0,0,1,.3.53,4.11,4.11,0,0,1,.21.42c.07.14.14.29.2.44s.18.41.25.62.15.44.22.66.18.64.25,1l.09.52c0,.1,0,.2,0,.3a.28.28,0,0,1,0,.09q0,.3.06.6c0,.27,0,.53,0,.8s0,.44,0,.67a8.66,8.66,0,0,1-.11,1,2.85,2.85,0,0,1-.06.39c0,.14-.05.26-.08.39a11.22,11.22,0,0,1-.8,2.37Z" transform="translate(1134.16 590.54)"/><path class="cls-2" d="M-542.12,744.9l-10.89-5-2.11,4.52.42.21.08,0a4.39,4.39,0,0,1,.47.27,6.66,6.66,0,0,1,.86.56,9.38,9.38,0,0,1,1.37,1.15c.13.12.25.25.37.38a11.12,11.12,0,0,1,1.41,1.88,5.54,5.54,0,0,1,.3.53,4.11,4.11,0,0,1,.21.42,3.49,3.49,0,0,1,.2.44c.09.2.18.41.25.62s.15.44.22.66.18.64.25,1l.09.52c0,.1,0,.2,0,.3a.28.28,0,0,1,0,.09q0,.3.06.6c0,.26,0,.53,0,.8s0,.44,0,.67a8.66,8.66,0,0,1-.11,1,2.85,2.85,0,0,1-.06.39c0,.14-.05.26-.08.39a11.22,11.22,0,0,1-.8,2.37l-77.3,167c-.12.26-.25.52-.39.77a6.59,6.59,0,0,1-.44.72s0,0,0,0a7.76,7.76,0,0,1-.49.68,11.39,11.39,0,0,1-5.17,3.8c-.26.09-.52.18-.78.25a10.58,10.58,0,0,1-1.58.34,11.05,11.05,0,0,1-4-.15h0a11.61,11.61,0,0,1-2.37-.8L-752.86,881l-.63-.32a11.1,11.1,0,0,1-1.18-.74,11.58,11.58,0,0,1-4.67-7.38h0l-4.94.42v.37c0,11.86,5.8,21.06,16.26,25.9l110.72,51.26a16.67,16.67,0,0,0,6.94,1.52,16.52,16.52,0,0,0,5.7-1,16.37,16.37,0,0,0,9.28-8.56l81.33-175.62A16.54,16.54,0,0,0-542.12,744.9Zm3.51,19.81-81.33,175.63a11.5,11.5,0,0,1-6.45,6,11.51,11.51,0,0,1-8.83-.36L-745.93,894.7a22,22,0,0,1-11-10.25c.25.16.5.31.76.45l.42.23.73.37,110.73,51.24c.28.14.55.25.84.37s.57.21.86.31.57.18.86.26a14.68,14.68,0,0,0,1.72.38c.29.05.59.09.89.12a13,13,0,0,0,1.65.09h.67a14,14,0,0,0,1.58-.13h.06c.48-.06,1-.16,1.45-.27l.16,0c.46-.11.91-.24,1.37-.39l.12,0,.4-.13c.35-.13.7-.27,1-.42a16.07,16.07,0,0,0,5.58-4.07l0,0c.23-.26.46-.52.67-.8a1.88,1.88,0,0,0,.18-.24c.21-.28.41-.56.61-.85h0c.2-.31.4-.63.58-1s.42-.78.61-1.18l77.3-167c.26-.55.48-1.12.68-1.68h0a16.46,16.46,0,0,0-.09-10.72h0l.2.08A11.54,11.54,0,0,1-538.61,764.71Z" transform="translate(1134.16 590.54)"/><path class="cls-2" d="M-631.73,811.55l-11.47,24.76,24.77,11.46L-607,823Zm10.86,29.59-15.69-7.26,7.27-15.7,15.69,7.27Z" transform="translate(1134.16 590.54)"/><path class="cls-2" d="M-644.48,839.07l-11.46,24.76,24.77,11.46,11.46-24.76Zm10.88,29.58-15.7-7.26L-642,845.7l15.71,7.27Z" transform="translate(1134.16 590.54)"/><path class="cls-2" d="M-656.87,865.84l-11.47,24.76,24.77,11.46,11.47-24.76ZM-646,895.43l-15.69-7.27,7.27-15.7,15.7,7.28Z" transform="translate(1134.16 590.54)"/><path class="cls-2" d="M-665.11,796.56l-11.47,24.76,24.78,11.46L-640.34,808Zm10.87,29.59-15.7-7.27,7.26-15.69,15.7,7.27Z" transform="translate(1134.16 590.54)"/><path class="cls-2" d="M-676.26,714.49l-20.56,44.4,109.24,50.56L-567,765ZM-590,802.82-690.2,756.46l16.38-35.35,100.16,46.37Z" transform="translate(1134.16 590.54)"/><path class="cls-2" d="M-604.84,765.55l-47.34-21.91a8.15,8.15,0,0,0-6.21-.25A8.05,8.05,0,0,0-663,747.6a8.12,8.12,0,0,0,4,10.78l47.34,21.91a8,8,0,0,0,3.39.75,8.13,8.13,0,0,0,7.38-4.71A8.13,8.13,0,0,0-604.84,765.55Zm-.58,8.68a3.12,3.12,0,0,1-4.14,1.52l-47.34-21.9a3.13,3.13,0,0,1-1.81-2.84,3,3,0,0,1,.29-1.31,3.08,3.08,0,0,1,1.76-1.62,3.06,3.06,0,0,1,1.07-.19,3.13,3.13,0,0,1,1.31.29l47.34,21.91A3.12,3.12,0,0,1-605.42,774.23Z" transform="translate(1134.16 590.54)"/><path class="cls-2" d="M-677.85,824.07l-11.47,24.77,24.77,11.46,11.47-24.76Zm10.86,29.6-15.7-7.27,7.28-15.7,15.69,7.27Z" transform="translate(1134.16 590.54)"/><path class="cls-2" d="M-690.25,850.84l-11.46,24.76,24.77,11.46,11.46-24.76Zm10.87,29.6-15.7-7.27,7.26-15.7,15.71,7.27Z" transform="translate(1134.16 590.54)"/><path class="cls-2" d="M-699.18,781.24-710.65,806l24.77,11.46,11.47-24.76Zm10.86,29.6L-704,803.57l7.27-15.7,15.7,7.27Z" transform="translate(1134.16 590.54)"/><path class="cls-2" d="M-711.93,808.76l-23.85,51.53L-711,871.75l23.87-51.53Zm-1.51,56.36-15.71-7.27,19.66-42.46,15.71,7.27Z" transform="translate(1134.16 590.54)"/><path class="cls-2" d="M-109.71,889.79v187H-.81l22.46-170,.66-5,1.59-12Zm104.52,182h-99.52v-177H18.19L17,904Z" transform="translate(1134.16 590.54)"/><path class="cls-2" d="M20.83,1088.78h-107l-22.21-12.33a2.51,2.51,0,0,1-1-3.4,2.5,2.5,0,0,1,3.4-1l21.07,11.7H16.45l23.38-177H19.46a2.5,2.5,0,1,1,0-5H45.53Z" transform="translate(1134.16 590.54)"/><path class="cls-2" d="M14.68,1084.28H-93.68a2.5,2.5,0,0,1-2.5-2.5,2.5,2.5,0,0,1,2.5-2.49h104L33,906.79H19.46a2.5,2.5,0,1,1,0-5H38.65Z" transform="translate(1134.16 590.54)"/><path class="cls-2" d="M-88.12,911h-24.24a3.62,3.62,0,0,0-3.63,3.62,3.62,3.62,0,0,0,3.63,3.62h24.24a3.62,3.62,0,0,0,3.62-3.62A3.62,3.62,0,0,0-88.12,911Z" transform="translate(1134.16 590.54)"/><path class="cls-2" d="M-88.12,944.69h-24.24a3.62,3.62,0,0,0-3.63,3.62,3.62,3.62,0,0,0,3.63,3.62h24.24a3.62,3.62,0,0,0,3.62-3.62A3.62,3.62,0,0,0-88.12,944.69Z" transform="translate(1134.16 590.54)"/><path class="cls-2" d="M-88.12,978.33h-24.24A3.63,3.63,0,0,0-116,982a3.62,3.62,0,0,0,3.63,3.62h24.24A3.62,3.62,0,0,0-84.5,982,3.63,3.63,0,0,0-88.12,978.33Z" transform="translate(1134.16 590.54)"/><path class="cls-2" d="M-88.12,1012h-24.24a3.62,3.62,0,0,0-3.63,3.62,3.62,3.62,0,0,0,3.63,3.63h24.24a3.62,3.62,0,0,0,3.62-3.63A3.62,3.62,0,0,0-88.12,1012Z" transform="translate(1134.16 590.54)"/><path class="cls-2" d="M-88.12,1045.63h-24.24a3.62,3.62,0,0,0-3.63,3.62,3.63,3.63,0,0,0,3.63,3.63h24.24a3.63,3.63,0,0,0,3.62-3.63A3.62,3.62,0,0,0-88.12,1045.63Z" transform="translate(1134.16 590.54)"/><path class="cls-2" d="M-721.28-302.46V-58.85h141.34l29.45-222.87.66-5,2.08-15.75Zm137,238.62h-132V-297.46h162.83l-1.68,12.75a2.51,2.51,0,0,0,0,.27Z" transform="translate(1134.16 590.54)"/><path class="cls-2" d="M-551.56-43.1H-691L-720-59.17a2.49,2.49,0,0,1-1-3.39,2.49,2.49,0,0,1,3.39-1l27.81,15.44h133.81l30.86-233.63h-27.6a2.49,2.49,0,0,1-2.5-2.49,2.5,2.5,0,0,1,2.5-2.5h33.3Z" transform="translate(1134.16 590.54)"/><path class="cls-2" d="M-559.63-49H-701a2.5,2.5,0,0,1-2.5-2.5A2.5,2.5,0,0,1-701-54h137l29.92-227.73h-18.58a2.49,2.49,0,0,1-2.5-2.49,2.5,2.5,0,0,1,2.5-2.5h24.28Z" transform="translate(1134.16 590.54)"/><path class="cls-2" d="M-693.74-275.37h-31.79a4.75,4.75,0,0,0-4.75,4.75,4.75,4.75,0,0,0,4.75,4.75h31.79a4.75,4.75,0,0,0,4.75-4.75A4.75,4.75,0,0,0-693.74-275.37Z" transform="translate(1134.16 590.54)"/><path class="cls-2" d="M-693.74-231.25h-31.79a4.75,4.75,0,0,0-4.75,4.75,4.75,4.75,0,0,0,4.75,4.75h31.79A4.75,4.75,0,0,0-689-226.5,4.75,4.75,0,0,0-693.74-231.25Z" transform="translate(1134.16 590.54)"/><path class="cls-2" d="M-693.74-187.13h-31.79a4.75,4.75,0,0,0-4.75,4.75,4.75,4.75,0,0,0,4.75,4.75h31.79a4.75,4.75,0,0,0,4.75-4.75A4.75,4.75,0,0,0-693.74-187.13Z" transform="translate(1134.16 590.54)"/><path class="cls-2" d="M-693.74-143h-31.79a4.75,4.75,0,0,0-4.75,4.75,4.75,4.75,0,0,0,4.75,4.75h31.79a4.75,4.75,0,0,0,4.75-4.75A4.75,4.75,0,0,0-693.74-143Z" transform="translate(1134.16 590.54)"/><path class="cls-2" d="M-693.74-98.89h-31.79a4.75,4.75,0,0,0-4.75,4.75,4.75,4.75,0,0,0,4.75,4.75h31.79A4.75,4.75,0,0,0-689-94.14,4.75,4.75,0,0,0-693.74-98.89Z" transform="translate(1134.16 590.54)"/><path class="cls-2" d="M-444.49-322.94a21.94,21.94,0,0,1-15.58-6.49l-41.13-41.11a21.94,21.94,0,0,1-.55-30.58l105.68-113.7,30.15,30.14a2.49,2.49,0,0,1,0,3.53,2.49,2.49,0,0,1-3.53,0l-26.49-26.48L-498.09-397.72a17,17,0,0,0,.43,23.65L-456.54-333a17,17,0,0,0,23.66.43l109.93-102.12-26.48-26.49a2.49,2.49,0,0,1,0-3.53,2.5,2.5,0,0,1,3.53,0l30.15,30.15L-429.48-328.87A22,22,0,0,1-444.49-322.94Z" transform="translate(1134.16 590.54)"/><path class="cls-2" d="M-319.07-430.78l-30.36-30.36a2.49,2.49,0,0,1,0-3.53,2.5,2.5,0,0,1,3.53,0l26.27,26.27,45.21-60.84a6.16,6.16,0,0,0-.59-8.08l-48.25-48.23a6.23,6.23,0,0,0-8.08-.6l-60.85,45.2,26.27,26.27a2.49,2.49,0,0,1,0,3.53,2.49,2.49,0,0,1-3.53,0l-30.37-30.36,65.5-48.65a11.26,11.26,0,0,1,14.6,1.08l48.24,48.23a11.26,11.26,0,0,1,1.08,14.59Z" transform="translate(1134.16 590.54)"/><path class="cls-2" d="M-304.33-526.24a16.57,16.57,0,0,0-11.78-4.87,16.55,16.55,0,0,0-11.77,4.87l-39.8,39.79-3.54,3.54L-389-465.09a16.66,16.66,0,0,0,0,23.54,16.61,16.61,0,0,0,11.77,4.87,16.64,16.64,0,0,0,11.78-4.87l17.83-17.82,3.53-3.53,39.8-39.8a16.54,16.54,0,0,0,4.86-11.77A16.59,16.59,0,0,0-304.33-526.24Zm-3.54,20L-369-445.09a11.57,11.57,0,0,1-8.24,3.42,11.59,11.59,0,0,1-8.24-3.42,11.66,11.66,0,0,1,0-16.47l61.17-61.14a11.56,11.56,0,0,1,8.23-3.41,11.59,11.59,0,0,1,4.46.88,11.62,11.62,0,0,1,3.78,2.53A11.64,11.64,0,0,1-307.87-506.23Z" transform="translate(1134.16 590.54)"/><path class="cls-2" d="M310.77,1327.28c-16.21,0-38.41-14.74-68.94-45.26a703.24,703.24,0,0,1-54.64-62c-21.32-27.22-35.91-50.12-41.1-64.46a2.5,2.5,0,0,1,4.7-1.7c4.94,13.66,19.64,36.65,40.33,63.09a699,699,0,0,0,54.25,61.56c52.36,52.35,70,46.83,78.72,38.12,6.28-6.29,7.34-14.11,3.34-24.62-5.23-13.73-18.79-31.42-41.47-54.08a688.75,688.75,0,0,0-61.6-54.21c-26.94-21.12-50.22-35.93-63.85-40.62a2.5,2.5,0,1,1,1.62-4.72c14.35,4.93,37.55,19.64,65.31,41.41a697.36,697.36,0,0,1,62.06,54.6c23.18,23.18,37.11,41.44,42.6,55.84,4.72,12.4,3.26,22.19-4.48,29.93A23,23,0,0,1,310.77,1327.28Z" transform="translate(1134.16 590.54)"/><path class="cls-2" d="M315.17,1291a3.76,3.76,0,0,1-.65.53,3.7,3.7,0,0,1-5.09-1.17c-7.12-11.36-18.81-25.2-34.76-41.15-13.36-13.36-29-27.56-45.31-41.07a3.69,3.69,0,1,1,4.72-5.68c16.45,13.65,32.3,28,45.81,41.53,16.57,16.57,28.28,30.45,35.8,42.45A3.68,3.68,0,0,1,315.17,1291Z" transform="translate(1134.16 590.54)"/><path class="cls-3" d="M153.48,1148.55" transform="translate(1134.16 590.54)"/><path class="cls-2" d="M158.06,1108.85c-11.73-13.45-34.42-18.55-67.44-15.15l-4.67.48,3,3.61c.14.17,13.9,16.82,18.21,35.16,2.51,10.69,7.6,18.22,15.14,22.39a30.87,30.87,0,0,0,15,3.63,40.77,40.77,0,0,0,9.61-1.16c1.25-.3,2-.56,2.15-.6l.6-.21,1.62-1.75,10.71-11.6,3.51-3.81,0-.17.11-.46C165.87,1138.52,169.69,1122.18,158.06,1108.85Zm-11.14,43.8c-2.56.73-13.23,3.29-22.22-1.7-6.24-3.46-10.51-9.9-12.67-19.15-3.37-14.37-11.92-27.41-16.41-33.54,28.82-2.35,48.53,2.3,58.63,13.82,8.8,10,7.21,22.53,6.71,25.36l-1.33,1.44-.24.27-.06.06Z" transform="translate(1134.16 590.54)"/><path class="cls-2" d="M189.14,1221a2.5,2.5,0,0,1-1.76-4.27l37-37a2.5,2.5,0,1,1,3.53,3.53l-37,37A2.53,2.53,0,0,1,189.14,1221Z" transform="translate(1134.16 590.54)"/><path class="cls-2" d="M-936.31-408.07a4.25,4.25,0,0,1-.68,1.26l0,0-.56.61h0a4.57,4.57,0,0,1-3,1.15,4.45,4.45,0,0,1-1.47-.25q-3-1-6.29-2.36h0c-26-10.63-64.78-35.69-110.56-71.46l-1.66-1.3-1.73-1.36c-23.71-18.57-47.53-38.63-69.85-58.82v-12.26c23.45,21.49,48.77,43,74,62.83l3.15,2.46,4,3.16c45.4,35.29,84.7,60.35,109,69.54.95.37,1.88.7,2.78,1A4.54,4.54,0,0,1-936.31-408.07Z" transform="translate(1134.16 590.54)"/><path class="cls-2" d="M-915.69-430.63a4.54,4.54,0,0,1-5.81-2.73c-.3-.83-.62-1.67-1-2.54-9.51-24.32-34.42-63.22-69.06-107.89l-3.16-4-2.47-3.15c-9.81-12.45-20-24.89-30.38-37.11h11.86c9.54,11.35,18.89,22.86,27.88,34.35l.25.32.28.36c36.55,46.72,62.16,86.38,72.7,112.5.58,1.42,1.11,2.79,1.59,4.13A4.53,4.53,0,0,1-915.69-430.63Z" transform="translate(1134.16 590.54)"/><path class="cls-2" d="M-1063.19-522.41a6.7,6.7,0,0,1-9.44.87c-20.72-17.2-40.92-35-59.53-52.5v-14.05h4.64c19.65,18.66,41.23,37.81,63.45,56.24A6.73,6.73,0,0,1-1063.19-522.41Z" transform="translate(1134.16 590.54)"/><path class="cls-3" d="M-926.38-423.76" transform="translate(1134.16 590.54)"/><path class="cls-2" d="M-809.29-331.64c-.25-.3-25.25-30.59-33.05-63.8-4.54-19.41-13.79-33.08-27.48-40.64-17.34-9.58-36.65-6.46-44.74-4.48-2.26.55-3.65,1-3.88,1.1l-1.08.37-2.94,3.19-19.44,21-6.38,6.91-.08.3h0l-.2.82c-.3,1.25-7.22,30.9,13.87,55.09,17,19.52,46.76,29.34,88.64,29.34a332.07,332.07,0,0,0,33.74-1.85l8.47-.87Zm-118.49-25.94c-16-18.22-13.09-40.88-12.17-46l2.38-2.57h0l.56-.61,0,0,22.52-24.39c4.65-1.32,24-6,40.32,3.09,11.32,6.28,19,18,23,34.73,6.12,26.09,21.63,49.76,29.77,60.88C-873.68-328.24-909.44-336.67-927.78-357.58Z" transform="translate(1134.16 590.54)"/><path class="cls-2" d="M-1058.16-479a4.56,4.56,0,0,1-3.21-1.33,4.53,4.53,0,0,1,0-6.41l67.07-67.06a4.54,4.54,0,0,1,6.42,0,4.53,4.53,0,0,1,0,6.41l-67.07,67.06A4.56,4.56,0,0,1-1058.16-479Z" transform="translate(1134.16 590.54)"/><path class="cls-2" d="M862.2,497.89a78.7,78.7,0,0,0-49.55,17.5,75.38,75.38,0,0,0-5.82,5.19,79,79,0,0,0,106.3,116.74,77.62,77.62,0,0,0,5.71-5.32A79,79,0,0,0,862.2,497.89Zm56.92,129.69c-.7.8-1.43,1.59-2.18,2.35l-.45.46q-2.5,2.54-5.25,4.85a76.19,76.19,0,0,1-19.87,12.11q-2.73,1.14-5.58,2.06a75.55,75.55,0,0,1-14,3.15c-1.14.14-2.29.26-3.45.35q-3,.24-6.09.24t-6.09-.24c-1.16-.09-2.29-.21-3.43-.35a76.27,76.27,0,0,1-14.06-3.14q-2.85-.93-5.6-2.08a76.15,76.15,0,0,1-25.1-17c-.9-.91-1.78-1.85-2.63-2.81A75.84,75.84,0,0,1,786,578.3c0-.46,0-.92,0-1.38s0-.94,0-1.42a75.84,75.84,0,0,1,19.31-49.23c.85-1,1.73-1.9,2.63-2.81l.8-.8a73.71,73.71,0,0,1,5.83-5.19,75.67,75.67,0,0,1,18.47-11q2.75-1.15,5.61-2.08a76,76,0,0,1,14-3.14c1.14-.14,2.28-.26,3.44-.35,2-.16,4-.24,6.08-.24s4.07.08,6.08.24c1.16.09,2.32.21,3.46.35a75.55,75.55,0,0,1,14,3.15c1.9.61,3.77,1.31,5.6,2.07a76.41,76.41,0,0,1,25.1,17c.9.91,1.78,1.85,2.63,2.81a75.92,75.92,0,0,1,19.31,49.06c0,.53,0,1.07,0,1.59s0,.81,0,1.21A75.92,75.92,0,0,1,919.12,627.58Z" transform="translate(1134.16 590.54)"/><path class="cls-2" d="M854.06,655a178.6,178.6,0,0,1-12.48-25.46c-7.09-17.91-10.69-35.6-10.69-52.58v-.08c0-16.93,3.61-34.59,10.68-52.49a181.37,181.37,0,0,1,12.49-25.46l2.42,1.44a177.24,177.24,0,0,0-12.3,25.05c-6.94,17.57-10.46,34.88-10.48,51.46v.08c0,16.62,3.53,34,10.49,51.55a176.11,176.11,0,0,0,12.29,25Z" transform="translate(1134.16 590.54)"/><path class="cls-2" d="M870.35,655l-2.42-1.44a176.05,176.05,0,0,0,12.28-25c7-17.59,10.49-34.93,10.49-51.55v-.14c0-16.57-3.54-33.87-10.48-51.4a177.18,177.18,0,0,0-12.29-25.05l2.42-1.44a180.22,180.22,0,0,1,12.48,25.46c7.07,17.86,10.66,35.5,10.68,52.43v.14c0,17-3.59,34.67-10.68,52.58A180.75,180.75,0,0,1,870.35,655Z" transform="translate(1134.16 590.54)"/><path class="cls-2" d="M836.8,651.59a170.71,170.71,0,0,1-17.09-21.84C808,611.76,802,594,802,576.92s6-34.85,17.68-52.82a171.41,171.41,0,0,1,17.09-21.84l2.07,1.9a168.29,168.29,0,0,0-16.81,21.48c-11.42,17.5-17.21,34.74-17.22,51.24s5.79,33.81,17.22,51.34a169.12,169.12,0,0,0,16.81,21.47Z" transform="translate(1134.16 590.54)"/><path class="cls-2" d="M887.61,651.59l-2.07-1.9a168,168,0,0,0,16.8-21.47c11.44-17.52,17.23-34.78,17.23-51.3v-.18c0-16.46-5.83-33.66-17.23-51.1a167.17,167.17,0,0,0-16.81-21.49l2.07-1.9a171.09,171.09,0,0,1,17.1,21.85c11.69,17.91,17.64,35.62,17.68,52.64v.18c0,17.07-6,34.85-17.68,52.83A170.62,170.62,0,0,1,887.61,651.59Z" transform="translate(1134.16 590.54)"/><rect class="cls-2" x="1938.78" y="1218.12" width="115.18" height="2.81"/><rect class="cls-2" x="1938.77" y="1114" width="115.2" height="2.81"/><rect class="cls-2" x="1918.72" y="1165.95" width="155.29" height="2.81"/><path class="cls-2" d="M862.2,670A93.25,93.25,0,0,1,800,507.23l2.89-2.59,12.3,13.51-5.77,5.26-7-7.72a85.46,85.46,0,0,0,115,126.3l-6.81-7.48,5.77-5.26,12.09,13.28-2.85,2.62A93,93,0,0,1,862.2,670Z" transform="translate(1134.16 590.54)"/><path class="cls-4" d="M862.2,487.34" transform="translate(1134.16 590.54)"/><polygon class="cls-2" points="2004.7 1285.2 1988.03 1285.2 1988.03 1256.34 1990.84 1256.34 1990.84 1282.39 2001.89 1282.39 2001.89 1256.35 2004.7 1256.35 2004.7 1285.2"/><path class="cls-2" d="M911.68,706.87a16.44,16.44,0,0,0-16.36-15H829.1a16.44,16.44,0,0,0-16.37,15c0,.46-.06.93-.06,1.4v1.41h99.07v-1.41C911.74,707.8,911.72,707.33,911.68,706.87Zm-96.13,0a13.65,13.65,0,0,1,13.55-12.21h66.22a13.64,13.64,0,0,1,13.54,12.21Z" transform="translate(1134.16 590.54)"/><path class="cls-2" d="M916.2,706.87h-108a8.13,8.13,0,1,0,0,16.26h108a8.13,8.13,0,0,0,0-16.26Zm0,13.44h-108a5.32,5.32,0,1,1,0-10.63h108a5.32,5.32,0,0,1,0,10.63Z" transform="translate(1134.16 590.54)"/><path class="cls-2" d="M-920.62,764c-15.58-29-35.26-45-55.42-45.07-3.32-8.78-14.07-15-26.33-15-15.12,0-27.41,9.32-27.41,20.77a15.75,15.75,0,0,0,.38,3.4c-.7.5-1.4,1-2.1,1.55-9.49-2.36-23.31-3.73-37.06,2.3-18.47,8.12-31.28,26.73-38,55.36-7.22,30.52-15.42,85.68,10.79,112.14h0c9.08,9.16,21,13.79,35.34,13.79l1.43,0c13.27,12.09,32,18.23,55.81,18.23a122.55,122.55,0,0,0,13.53-.72,122.55,122.55,0,0,0,13.53.72c23.34,0,41.87-5.92,55.09-17.58,15.23-13.43,23-34.21,23-61.76C-898.13,823.13-906.54,790.19-920.62,764Zm-81.75-55.85c9.79,0,18.39,4.4,21.71,10.77h-22.58a42.87,42.87,0,0,0-22.24,6.59c0-.27-.07-.55-.07-.82C-1025.55,715.54-1015.16,708.13-1002.37,708.13Zm-90.44,188.32c-24.78-25-16.7-78.53-9.69-108.2,6.45-27.26,18.45-44.91,35.64-52.45,11.26-4.95,22.68-4.49,31.28-2.77l-.18.18c-.81.73-1.6,1.48-2.4,2.26l-.47.48c-.67.67-1.32,1.36-2,2.06l-.58.63c-.78.84-1.55,1.71-2.32,2.61l-.4.48c-.65.78-1.3,1.56-1.95,2.38-.11.14-.23.27-.34.42a35.92,35.92,0,0,0-15.68,2.93c-13.3,5.9-22.81,20.61-28.28,43.72-10.92,46.14-8.6,81.25,6.37,96.35a28,28,0,0,0,10.83,6.78c.08.17.18.34.26.51.5,1,1,2,1.55,3l.38.7c.65,1.13,1.32,2.23,2,3.31.15.24.32.47.47.7.62.91,1.25,1.79,1.9,2.66l.49.66c.78,1,1.59,2,2.43,2.93.06.06.11.13.16.19C-1075.23,908.37-1085.15,904.18-1092.81,896.45Zm43.42-147.65c-19.19,26.83-31.91,67.69-31.91,103.29,0,13.87,2,26.11,5.91,36.48a23.45,23.45,0,0,1-5.41-4c-13.91-14-15.82-47.72-5.24-92.41,5.14-21.75,13.85-35.49,25.86-40.83A30.79,30.79,0,0,1-1049.39,748.8Zm-7.42,160.73a54.69,54.69,0,0,1-7.93-9.37c-.76-1.12-1.49-2.27-2.18-3.46q-1.39-2.4-2.6-5c-5-10.79-7.55-24.12-7.55-39.61,0-36.26,13.48-78.09,33.53-104.1l0,0a89.27,89.27,0,0,1,10.18-11.25c.62-.58,1.24-1.13,1.87-1.67s1.18-1,1.78-1.48c8.65-6.92,17.54-10.44,26.45-10.44h9.18c-1,.47-1.93,1-2.88,1.51-.57.31-1.13.66-1.7,1l-1.13.69c-.71.45-1.42.93-2.13,1.42l-.37.26c-19.43,13.73-34.84,41.16-43.68,70.75-.16.53-.31,1.07-.47,1.61-.39,1.35-.77,2.71-1.13,4.07-.22.81-.44,1.61-.65,2.42-.28,1.1-.54,2.2-.8,3.3-.45,1.88-.87,3.75-1.26,5.64-.15.69-.3,1.38-.43,2.07-.25,1.22-.47,2.45-.69,3.68-.12.69-.24,1.37-.35,2.06-.21,1.22-.41,2.45-.59,3.66-.1.69-.19,1.38-.28,2.07-.27,1.92-.5,3.84-.7,5.74-.1,1-.21,2-.3,3s-.14,1.81-.21,2.7c-.08,1.13-.15,2.27-.2,3.39,0,.77-.08,1.54-.11,2.31-.06,1.68-.1,3.36-.11,5,0,.19,0,.39,0,.58,0,.48,0,.94,0,1.41,0,1.41,0,2.83.09,4.2,0,.58.07,1.14.1,1.72.06,1.29.14,2.58.24,3.83l.15,1.5c.13,1.32.27,2.62.44,3.88,0,.42.12.84.18,1.26.19,1.34.4,2.67.64,4,.06.34.13.68.19,1,.28,1.39.57,2.76.89,4.09.06.23.11.46.17.68a77.57,77.57,0,0,0,4.66,13.49v0c.53,1.17,1.09,2.3,1.67,3.4,0,.06.07.12.1.19.57,1.06,1.15,2.1,1.76,3.11l.16.25q.9,1.49,1.86,2.88l.21.29c.65.94,1.31,1.85,2,2.73l.08.1.06.08a59.72,59.72,0,0,0,6.07,6.57l.63.57c.85.78,1.72,1.52,2.61,2.23l.8.65c1,.77,2,1.5,3,2.2.48.33,1,.64,1.46,1,.65.42,1.31.82,2,1.21.83.49,1.68,1,2.54,1.43.65.34,1.31.69,2,1s1.33.64,2,1,1.4.6,2.1.89c.93.39,1.87.76,2.83,1.11l2.13.74c.44.15.86.32,1.31.46C-1028.31,926.52-1045,920.6-1056.81,909.53Zm80.63,17.67a118.1,118.1,0,0,1-13.3-.72c-35.48-4.06-56-25.16-59.84-61.26,0-.44-.1-.87-.15-1.32-.07-.73-.12-1.49-.17-2.23-.07-.93-.13-1.86-.18-2.81q-.06-.95-.09-1.92c0-1.43-.08-2.87-.09-4.33,0-.18,0-.35,0-.52s0-.38,0-.56c0-1.67,0-3.34.11-5,0-.62.05-1.26.08-1.89.07-1.36.16-2.74.26-4.12,0-.56.08-1.13.13-1.71.34-4,.81-8,1.43-12,0-.29.09-.57.13-.85.29-1.82.61-3.65.95-5.47.05-.28.1-.55.16-.83q1.21-6.31,2.84-12.57l.06-.23c.51-1.92,1-3.84,1.6-5.74.1-.35.2-.69.31-1q.8-2.62,1.65-5.24c.09-.27.17-.54.26-.8.64-2,1.33-3.89,2-5.81.14-.39.29-.77.44-1.16.54-1.44,1.1-2.85,1.67-4.27l.87-2.1c.48-1.13,1-2.25,1.46-3.36.31-.7.62-1.41.94-2.11.61-1.33,1.25-2.65,1.89-4l.6-1.23c.89-1.79,1.81-3.54,2.76-5.27l.29-.52q1.35-2.43,2.76-4.77l.23-.38c1-1.66,2-3.29,3.11-4.87a106.6,106.6,0,0,1,9.19-11.92A74.51,74.51,0,0,1-1000.6,732l.51-.36c.77-.55,1.55-1.1,2.33-1.6.38-.25.76-.46,1.14-.69.58-.35,1.16-.72,1.75-1s1.14-.6,1.71-.89c.41-.2.81-.43,1.22-.62q1.49-.69,3-1.26l.26-.08c1-.37,2-.7,2.92-1a35,35,0,0,1,9.6-1.37h0c39.76,0,73.82,70.91,73.82,129C-902.36,914.17-942.51,927.2-976.18,927.2Z" transform="translate(1134.16 590.54)"/><path class="cls-2" d="M-1009.94,760.05v45.23h67.51V760.05Zm63.29,41h-59.06V764.28h59.06Z" transform="translate(1134.16 590.54)"/><path class="cls-2" d="M-957.26,776.57h-37.85a2.12,2.12,0,0,1-2.11-2.12,2.12,2.12,0,0,1,2.11-2.11h37.85a2.12,2.12,0,0,1,2.12,2.11A2.12,2.12,0,0,1-957.26,776.57Z" transform="translate(1134.16 590.54)"/><path class="cls-2" d="M-957.26,793h-37.85a2.12,2.12,0,0,1-2.11-2.12,2.12,2.12,0,0,1,2.11-2.11h37.85a2.12,2.12,0,0,1,2.12,2.11A2.12,2.12,0,0,1-957.26,793Z" transform="translate(1134.16 590.54)"/><path class="cls-2" d="M-935.88,836.35h-73.75a17.55,17.55,0,0,0-17.54,17.53v5.65a11.16,11.16,0,0,0-6.19-1.65c-2.75,0-4.75,2.29-4.75,5.44a6.06,6.06,0,0,0,1,3.5,4.43,4.43,0,0,0,3.7,1.93,11.32,11.32,0,0,0,6.19-1.64v16.78a24.43,24.43,0,0,0,24.41,24.4h60a24.44,24.44,0,0,0,24.41-24.4v-30A17.55,17.55,0,0,0-935.88,836.35Zm-97.48,28.18c-.09,0-.15,0-.25-.15a2,2,0,0,1-.27-1.06c0-.42.15-1.21.52-1.21a6.23,6.23,0,0,1,4.2,1.21A6.23,6.23,0,0,1-1033.36,864.53Zm110.79,19.36a20.18,20.18,0,0,1-20.18,20.17h-60a20.19,20.19,0,0,1-20.18-20.17V865.43h100.37Zm0-22.69h-100.37v-7.32a13.32,13.32,0,0,1,13.31-13.31h73.75a13.32,13.32,0,0,1,13.31,13.31Z" transform="translate(1134.16 590.54)"/><path class="cls-2" d="M852.7-236.85v256l0,0,1,1.84,14.45,27.68,9.71,28.1,9.72-28.1L902,21l1-1.88v-256ZM898,17.89l-.2.4L884,44.73l-1,1.82-5.19,14.92-4.16-12.06-.87-2.52-1.12-2.15-13.77-26.4-.23-.45V-231.85H898Z" transform="translate(1134.16 590.54)"/><path class="cls-2" d="M852.7-246.41v14.56H903v-14.56ZM898-236.85h-40.3v-4.56H898Z" transform="translate(1134.16 590.54)"/><path class="cls-2" d="M877.84-276.61a25.16,25.16,0,0,0-25.14,25.14v10.06H903v-10.06A25.17,25.17,0,0,0,877.84-276.61Zm-20.15,30.2v-5.06a20.17,20.17,0,0,1,20.15-20.14A20.16,20.16,0,0,1,898-251.47v5.06Z" transform="translate(1134.16 590.54)"/><path class="cls-2" d="M886.06,45.35c-.68-.24-1.38-.44-2.08-.62a25.43,25.43,0,0,0-12.29,0c-.7.17-1.38.38-2.06.61l-2.36.82.86,2.5,9.71,28.1,9.72-28.1.87-2.5Zm-12.38,4.06a20.2,20.2,0,0,1,8.34,0l-4.18,12.06Z" transform="translate(1134.16 590.54)"/><path class="cls-2" d="M875.35-236.86V21h4.79l.22-1.52.09-.62a8.82,8.82,0,0,1,17.34-.56c0,.18.07.37.1.56L898.2,21H903V-236.86ZM898,9.55a13.74,13.74,0,0,0-17.63,0l0,0V-231.86H898Z" transform="translate(1134.16 590.54)"/><path class="cls-2" d="M852.72-236.86V21h4.79l.31-2.14c0-.17.06-.34.1-.51a8.82,8.82,0,0,1,17.35.51l.08.55.23,1.59h4.78V-236.86ZM875.37,9.55l0,0a13.76,13.76,0,0,0-17.64,0V-231.86h17.66Z" transform="translate(1134.16 590.54)"/><path class="cls-2" d="M-690,173.53l-1.39-2.67-21.26-40.69L-726.93,89l-14.25,41.21-21.24,40.7-1.44,2.75v397.3a37,37,0,0,0,36.93,36.92A37,37,0,0,0-690,570.91V173.61Zm-36.89-62.13,6.13,17.73a30.14,30.14,0,0,1-12.26,0Zm-9,24.59a37.17,37.17,0,0,0,9,1.1,37.5,37.5,0,0,0,9-1.11l20.21,38.78a13,13,0,0,1-14.94,10.07,13.33,13.33,0,0,1-10.6-11.32l0-.34-.33-2.25s0-.06-.07-.06h-6.57a.09.09,0,0,0-.08.06l-.32,2.18-.13.89a13,13,0,0,1-15.12,10.83,13.2,13.2,0,0,1-10.31-10.06Zm38.57,51.65V542.11h-25.89V187.66a20.27,20.27,0,0,0,12.93,4.7A20.27,20.27,0,0,0-697.37,187.64Zm-59.16,0a20.31,20.31,0,0,0,13,4.72,20.22,20.22,0,0,0,12.92-4.7V542.11h-25.9Zm59.2,383.27a29.62,29.62,0,0,1-29.6,29.58,29.63,29.63,0,0,1-29.6-29.58v-7.42h59.2Zm0-14.76h-59.2v-6.69h59.2Z" transform="translate(1134.16 590.54)"/><path class="cls-2" d="M746-192.82a19.73,19.73,0,0,0-14.08-5.84,19.75,19.75,0,0,0-14.09,5.84l-14.24,14.23A17.46,17.46,0,0,0,691.94-183a17.46,17.46,0,0,0-12.45,5.17l-12.08,12.07,17.35,17.35,13.18,13.17,3.58,3.58,17.35,17.34,12.07-12.07a17.62,17.62,0,0,0,.79-24.06L746-164.65A19.94,19.94,0,0,0,746-192.82Zm-21.27,42.37,2.72,2.72a12.61,12.61,0,0,1,0,17.83l-8.54,8.55-13.31-13.3-17.78-17.78-13.3-13.3,8.53-8.54a12.58,12.58,0,0,1,8.93-3.7,12.58,12.58,0,0,1,8.93,3.7l2.7,2.72,17.75-17.74a14.83,14.83,0,0,1,10.56-4.37,14.85,14.85,0,0,1,10.56,4.37,15,15,0,0,1,0,21.1Z" transform="translate(1134.16 590.54)"/><path class="cls-2" d="M687.78-152.43l-3,4.05-37.7,50.59a2.72,2.72,0,0,0,.26,3.59,2.7,2.7,0,0,0,1.94.81,2.75,2.75,0,0,0,1.65-.55l50.61-37.69,4-3Zm-27.53,45.3,28.09-37.67,9.6,9.59Z" transform="translate(1134.16 590.54)"/><path class="cls-2" d="M725.05-168l10.38-10.38a3.8,3.8,0,0,1,5.4,0,3.81,3.81,0,0,1,0,5.4l-10.38,10.38a3.82,3.82,0,0,1-5.4,0A3.82,3.82,0,0,1,725.05-168Z" transform="translate(1134.16 590.54)"/><path class="cls-2" d="M-1010.64,576.06a17.55,17.55,0,0,0-5.71-3.83,17.4,17.4,0,0,0-6.74-1.34,17.46,17.46,0,0,0-11.61,4.38L-1048.93,561a19.72,19.72,0,0,0-6.47-4.33,19.88,19.88,0,0,0-7.62-1.51,19.79,19.79,0,0,0-14.1,5.84,19.77,19.77,0,0,0-5.84,14.08,19.83,19.83,0,0,0,5.84,14.09l14.24,14.23a17.48,17.48,0,0,0-4.37,11.61,17.51,17.51,0,0,0,5.16,12.45l12.07,12.07,34.1-34.1,17.37-17.34Zm-8.29,25.37-17.79,17.77-13.3,13.3-8.54-8.54a12.47,12.47,0,0,1-3.69-8.91,12.53,12.53,0,0,1,3.69-8.93l2.72-2.71-17.74-17.74a14.84,14.84,0,0,1-4.38-10.55,14.84,14.84,0,0,1,4.38-10.56A14.86,14.86,0,0,1-1063,560.2a14.86,14.86,0,0,1,10.55,4.36l17.74,17.74,2.72-2.72a12.53,12.53,0,0,1,8.92-3.69,12.52,12.52,0,0,1,8.92,3.69l8.54,8.55Z" transform="translate(1134.16 590.54)"/><path class="cls-2" d="M-978.2,656.07l-37.72-50.6-3-4-17.79,17.77,4,3,50.61,37.69a2.77,2.77,0,0,0,1.65.55,2.74,2.74,0,0,0,1.95-.81A2.73,2.73,0,0,0-978.2,656.07Zm-50.89-37.43,9.61-9.6,28.08,37.68Z" transform="translate(1134.16 590.54)"/><path class="cls-2" d="M-1052.32,581.94l-10.38-10.38a3.82,3.82,0,0,1,0-5.4,3.82,3.82,0,0,1,5.4,0l10.38,10.38a3.82,3.82,0,0,1,0,5.4A3.8,3.8,0,0,1-1052.32,581.94Z" transform="translate(1134.16 590.54)"/><path class="cls-2" d="M-215.46,1021.16a24.32,24.32,0,0,0-7.17-17.3,24.36,24.36,0,0,0-17.31-7.17,24.33,24.33,0,0,0-17.31,7.17l-18.4,18.38a21.41,21.41,0,0,0-14.66-5.75,21.47,21.47,0,0,0-15.25,6.31l-14.77,14.77,21.82,21.82,3.58,3.56,13.19,13.18,3.57,3.58,21.83,21.82,14.76-14.76a21.46,21.46,0,0,0,6.32-15.25,21.39,21.39,0,0,0-5.76-14.66l18.39-18.39A24.34,24.34,0,0,0-215.46,1021.16Zm-32.62,35.69,3,3a16.56,16.56,0,0,1,0,23.41l-11.23,11.23-17.79-17.77-21.36-21.35-17.77-17.77,11.24-11.23a16.43,16.43,0,0,1,11.71-4.86,16.48,16.48,0,0,1,11.72,4.86l2.95,3,21.92-21.91a19.39,19.39,0,0,1,13.78-5.7,19.37,19.37,0,0,1,13.77,5.7,19.48,19.48,0,0,1,0,27.54Z" transform="translate(1134.16 590.54)"/><path class="cls-2" d="M-295.49,1055.34l-3,4.05-47.88,64.26a2.79,2.79,0,0,0,.26,3.68,2.81,2.81,0,0,0,2,.83,2.85,2.85,0,0,0,1.68-.56l64.29-47.89,4-3Zm-38,59.34,38.55-51.73,13.19,13.18Z" transform="translate(1134.16 590.54)"/><path class="cls-2" d="M-248.55,1034.67l13.09-13.1a4.82,4.82,0,0,1,6.81,0,4.8,4.8,0,0,1,0,6.81l-13.09,13.1a4.82,4.82,0,0,1-6.81,0A4.81,4.81,0,0,1-248.55,1034.67Z" transform="translate(1134.16 590.54)"/><path class="cls-2" d="M-191.85-234.22V-222h3.7v-12.23a1.85,1.85,0,0,0-1.85-1.85A1.85,1.85,0,0,0-191.85-234.22Z" transform="translate(1134.16 590.54)"/><path class="cls-2" d="M-173.57-234.22V-222h3.7v-12.23a1.85,1.85,0,0,0-1.85-1.85A1.85,1.85,0,0,0-173.57-234.22Z" transform="translate(1134.16 590.54)"/><path class="cls-2" d="M-155.29-234.22V-222h3.7v-12.23a1.85,1.85,0,0,0-1.85-1.85A1.85,1.85,0,0,0-155.29-234.22Z" transform="translate(1134.16 590.54)"/><path class="cls-2" d="M-118.74-234.22V-222H-115v-12.23a1.85,1.85,0,0,0-1.85-1.85A1.85,1.85,0,0,0-118.74-234.22Z" transform="translate(1134.16 590.54)"/><path class="cls-2" d="M-137-234.22V-222h3.7v-12.23a1.85,1.85,0,0,0-1.85-1.85A1.85,1.85,0,0,0-137-234.22Z" transform="translate(1134.16 590.54)"/><path class="cls-2" d="M-100.46-234.22V-222h3.71v-12.23a1.85,1.85,0,0,0-1.85-1.85A1.85,1.85,0,0,0-100.46-234.22Z" transform="translate(1134.16 590.54)"/><path class="cls-2" d="M-63.9-234.22V-222h3.71v-12.23A1.85,1.85,0,0,0-62-236.07,1.85,1.85,0,0,0-63.9-234.22Z" transform="translate(1134.16 590.54)"/><path class="cls-2" d="M-45.62-234.22V-222h3.71v-12.23a1.85,1.85,0,0,0-1.86-1.85A1.85,1.85,0,0,0-45.62-234.22Z" transform="translate(1134.16 590.54)"/><path class="cls-2" d="M-82.18-234.22V-222h3.71v-12.23a1.85,1.85,0,0,0-1.85-1.85A1.85,1.85,0,0,0-82.18-234.22Z" transform="translate(1134.16 590.54)"/><path class="cls-2" d="M-27.34-234.22V-222h3.71v-12.23a1.85,1.85,0,0,0-1.86-1.85A1.85,1.85,0,0,0-27.34-234.22Z" transform="translate(1134.16 590.54)"/><path class="cls-2" d="M-9.06-234.22V-222h3.71v-12.23a1.85,1.85,0,0,0-1.86-1.85A1.85,1.85,0,0,0-9.06-234.22Z" transform="translate(1134.16 590.54)"/><path class="cls-2" d="M9.22-234.22V-222h3.71v-12.23a1.85,1.85,0,0,0-1.86-1.85A1.85,1.85,0,0,0,9.22-234.22Z" transform="translate(1134.16 590.54)"/><path class="cls-2" d="M27.5-234.22V-222h3.7v-12.23a1.85,1.85,0,0,0-1.85-1.85A1.85,1.85,0,0,0,27.5-234.22Z" transform="translate(1134.16 590.54)"/><path class="cls-2" d="M-189.2-262.36a3.88,3.88,0,0,0,3.88,3.89H21.29a3.89,3.89,0,0,0,3.88-3.89,3.88,3.88,0,0,0-3.88-3.88H-185.32A3.88,3.88,0,0,0-189.2-262.36Z" transform="translate(1134.16 590.54)"/><path class="cls-2" d="M-30.52-278a56.65,56.65,0,0,0-49.8-29.64A56.64,56.64,0,0,0-130.13-278l-1.46,2.68H-29.06Zm-94.86-.95A53,53,0,0,1-80.32-304a53,53,0,0,1,45,25.05Zm94.86.95a56.65,56.65,0,0,0-49.8-29.64A56.64,56.64,0,0,0-130.13-278l-1.46,2.68H-29.06Zm-94.86-.95A53,53,0,0,1-80.32-304a53,53,0,0,1,45,25.05Zm157.46,0H13.81a98.5,98.5,0,0,0-94.13-70.19A98.5,98.5,0,0,0-174.46-279h-20.28a8.37,8.37,0,0,0-8.35,8.36v43a8.36,8.36,0,0,0,8.35,8.35H32.08a8.37,8.37,0,0,0,8.36-8.35v-43A8.37,8.37,0,0,0,32.08-279Zm4.72,51.41a4.72,4.72,0,0,1-4.72,4.71H-194.74a4.71,4.71,0,0,1-4.71-4.71v-43a4.72,4.72,0,0,1,4.71-4.73h23l.37-1.32a94.84,94.84,0,0,1,91-68.87,94.83,94.83,0,0,1,91,68.87l.38,1.32h21a4.73,4.73,0,0,1,4.72,4.73Zm-117.12-80.1A56.64,56.64,0,0,0-130.13-278l-1.46,2.68H-29.06L-30.52-278A56.65,56.65,0,0,0-80.32-307.69ZM-125.38-279A53,53,0,0,1-80.32-304a53,53,0,0,1,45,25.05Z" transform="translate(1134.16 590.54)"/><path class="cls-2" d="M507.74,1219.62l-.2-.18a2.27,2.27,0,0,0-2.24-.38,2.14,2.14,0,0,0-.67.38l-11.09,9.1h0l-80.27,66-3.09,2.54-7.87,6.46a2.29,2.29,0,0,0-.31,3.26l36,43a2.3,2.3,0,0,0,1.77.83l.25,0a2.29,2.29,0,0,0,1.79-1.22l66.37-127.11A2.25,2.25,0,0,0,507.74,1219.62Zm-7,8.19L439.4,1345.3l-33.26-39.79,8.3-6.82,15.39-12.64,70.93-58.25Z" transform="translate(1134.16 590.54)"/><path class="cls-2" d="M507.81,1219.85a1.55,1.55,0,0,0-.07-.23,2.26,2.26,0,0,0-2.17-1.54h-.07l-133.45,4.29a2.31,2.31,0,0,0-2.18,2.83l12.29,52.28a2.29,2.29,0,0,0,1.24,1.55,2.22,2.22,0,0,0,1,.23,2.37,2.37,0,0,0,1-.21l8.05-3.76,3.7-1.73,96.39-45h0l13-6.06a2.16,2.16,0,0,0,.63-.44A2.25,2.25,0,0,0,507.81,1219.85Zm-114.28,51-8,3.71-11.33-48.24,123.14-4Z" transform="translate(1134.16 590.54)"/><path class="cls-2" d="M506.92,1220.11a2.3,2.3,0,0,0-1.62-1,2.27,2.27,0,0,0-1.3.19l-6.62,3.09-103.85,48.49a2.25,2.25,0,0,0-1.26,1.54,2.28,2.28,0,0,0,.41,2l.75,1L410.16,1297l1,1.27a2.34,2.34,0,0,0,1.57.89H413a2.34,2.34,0,0,0,1.47-.52l15.39-12.64,70.93-58.24h0l5.68-4.67a2.23,2.23,0,0,0,.73-1.09A2.32,2.32,0,0,0,506.92,1220.11Zm-93.67,74.39-16.12-20.94,96.39-45Z" transform="translate(1134.16 590.54)"/><path class="cls-2" d="M947.87-542.47l-38.12-45.62H896.63l40.76,48.78L705.07-348.51l-6.06,5L826.73-588.09H815.36l-135,258.44a5.78,5.78,0,0,0,1,6.73h0a5.35,5.35,0,0,0,.5.45,5.79,5.79,0,0,0,3.67,1.32,5.75,5.75,0,0,0,2-.35,5.78,5.78,0,0,0,1.73-1l27.92-22.92h0L919.5-511.58l7.78-6.39,19.81-16.27a5.78,5.78,0,0,0,2.11-4A5.77,5.77,0,0,0,947.87-542.47Z" transform="translate(1134.16 590.54)"/><path class="cls-2" d="M966.32-461.73l-6.23,2.91L717.18-345.41h0l-32.76,15.29a5.69,5.69,0,0,0-1.6,1.1,5.73,5.73,0,0,0-1.6,5.52,4.74,4.74,0,0,0,.17.57h0a5.73,5.73,0,0,0,5.47,3.88h.2l279.26-9v-10.08l-258.84,8.33L966.32-450.61Z" transform="translate(1134.16 590.54)"/><path class="cls-2" d="M927.28-518l-2.49-3.23a5.84,5.84,0,0,0-3.94-2.23,5.87,5.87,0,0,0-4.35,1.29L705.07-348.51l-6.06,5-14.34,11.77a5.74,5.74,0,0,0-1.86,2.74,5.74,5.74,0,0,0,.64,4.86,5.81,5.81,0,0,0,4.07,2.66,5.52,5.52,0,0,0,.81.06,5.87,5.87,0,0,0,2.5-.56l16.65-7.77L966.32-450.61v-16.63ZM717.18-345.41,919.5-511.58l40.59,52.76Z" transform="translate(1134.16 590.54)"/><path class="cls-2" d="M922.87,241.63a2.16,2.16,0,0,0-.39-.71l-9.24-11.24v0l-67-81.51L843.66,145l-6.56-8a2.31,2.31,0,0,0-1.59-.85,2.35,2.35,0,0,0-1.72.53l-43.73,36.52a2.33,2.33,0,0,0,.42,3.87l129.11,67.38a2.31,2.31,0,0,0,2.71-.39l.18-.2a2.3,2.3,0,0,0,.53-1.48A2.11,2.11,0,0,0,922.87,241.63ZM794.64,174.7l40.42-33.76,6.9,8.39,0,0L914,237Z" transform="translate(1134.16 590.54)"/><path class="cls-2" d="M919.52,106.33a2.36,2.36,0,0,0-2.88-2.21L863.53,116.6a2.34,2.34,0,0,0-1.59,3.26l3.81,8.17,1.77,3.77,45.71,97.86v0l6.17,13.2a2.13,2.13,0,0,0,.44.65,2.31,2.31,0,0,0,2.22.63.62.62,0,0,0,.23-.07,2.31,2.31,0,0,0,1.57-2.2v-.08Zm-49.23,21.81-3.77-8.08,49-11.51,4,125Z" transform="translate(1134.16 590.54)"/><path class="cls-2" d="M922.67,240.29l-3.12-6.71L870.29,128.14a2.32,2.32,0,0,0-1.57-1.29,2.35,2.35,0,0,0-2,.42l-1,.76-22.09,17-1.3,1a2.35,2.35,0,0,0-.4,3.31l0,0L914,237l4.75,5.78a2.29,2.29,0,0,0,3,.49,2.28,2.28,0,0,0,1.07-1.63,1.84,1.84,0,0,0,0-.33A2.44,2.44,0,0,0,922.67,240.29Zm-76.42-92.14,21.27-16.35,45.71,97.86Z" transform="translate(1134.16 590.54)"/><path class="cls-2" d="M888.78,1410.46,966.32,1194v-25.61l-86.72,242ZM720.29,949.66,579.62,1342.28c0,.13-.1.26-.14.4l-1.39,3.86,2.52.9,12.29,4.4,163.7,58.62h25.62l-193.08-69.14L725.51,960.7l240.81,86.24v-9.18Z" transform="translate(1134.16 590.54)"/><path class="cls-2" d="M753.37,1046.54,713,1159.27l175.48,62.84,40.39-112.74Zm129.87,164.53-159.22-57,34.58-96.48,159.21,57Z" transform="translate(1134.16 590.54)"/><path class="cls-2" d="M780.77,1094.57l-16.11,45,96.4,34.52,16.11-45ZM855.84,1163l-80.14-28.7L786,1105.61l80.14,28.7Z" transform="translate(1134.16 590.54)"/><path class="cls-2" d="M610.35,1383.57l75.09,26.89H659.83l-55.47-19.86-23.75-43.16-.78-1.42a4.28,4.28,0,0,1-.35-3.34c0-.14.09-.27.14-.4a4.32,4.32,0,0,1,7.78-.43l5.5,10Z" transform="translate(1134.16 590.54)"/><polygon class="cls-2" points="2100.49 1868.36 2100.49 1893.97 2062.13 2001.01 2052.96 2001.01 2100.49 1868.36"/><path class="cls-2" d="M966.32,1221.53v26.53l-5.78,16.81a4.32,4.32,0,1,1-8.17-2.82Z" transform="translate(1134.16 590.54)"/><path class="cls-2" d="M736.88,1410.46H711.36l-78.79-28.36a4.32,4.32,0,0,1,2.93-8.13Z" transform="translate(1134.16 590.54)"/><path class="cls-2" d="M-587.34,1192.59-837,943c-15.72-15.73-40.55-16.49-55.33-1.71L-1132.16,1181v12.65L-886,947.61c11.3-11.29,30.45-10.54,42.68,1.7l63.83,63.8,122,122h0l63.81,63.8c12.23,12.23,13,31.37,1.7,42.67l-168.92,168.87h12.66l162.6-162.55C-570.85,1233.13-571.61,1208.31-587.34,1192.59Zm-544.82,213v4.84h4.85Z" transform="translate(1134.16 590.54)"/><path class="cls-2" d="M-855.19,985.86l-89.56,89.53,89.56,89.53,89.56-89.53Zm-76.89,89.53,76.89-76.87,76.89,76.87-76.89,76.87Z" transform="translate(1134.16 590.54)"/><path class="cls-2" d="M-742,1099l-43.42,43.41L-664,1263.84l43.42-43.41Zm-30.76,43.41L-742,1111.7l108.75,108.73L-664,1251.18Z" transform="translate(1134.16 590.54)"/><path class="cls-2" d="M-708.22,1301.73l-115.08-115a4.47,4.47,0,0,1,0-6.33,4.47,4.47,0,0,1,6.33,0l115.09,115.05a4.47,4.47,0,0,1,0,6.33A4.48,4.48,0,0,1-708.22,1301.73Z" transform="translate(1134.16 590.54)"/><path class="cls-2" d="M-756.25,1343l-230.49-230.43a4.47,4.47,0,0,1,0-6.33,4.47,4.47,0,0,1,6.33,0l230.49,230.43a4.47,4.47,0,0,1,0,6.33A4.47,4.47,0,0,1-756.25,1343Z" transform="translate(1134.16 590.54)"/><path class="cls-2" d="M-801.13,1387.85l-230.49-230.43a4.47,4.47,0,0,1,0-6.33,4.47,4.47,0,0,1,6.33,0l230.49,230.43a4.47,4.47,0,0,1,0,6.33A4.47,4.47,0,0,1-801.13,1387.85Z" transform="translate(1134.16 590.54)"/><path class="cls-2" d="M-855.61,1410.46h-12.66l-208.23-208.18a4.46,4.46,0,0,1,0-6.32,4.47,4.47,0,0,1,6.33,0Z" transform="translate(1134.16 590.54)"/><path class="cls-2" d="M-945.37,1410.46H-958l-163.36-163.31a4.46,4.46,0,0,1,0-6.32,4.48,4.48,0,0,1,6.34,0Z" transform="translate(1134.16 590.54)"/><polygon class="cls-2" points="99.03 2001.01 86.37 2001.01 2 1916.67 2 1903.99 99.03 2001.01"/><path class="cls-2" d="M-690.86,1284.37l-115.08-115a4.47,4.47,0,0,1,0-6.33,4.47,4.47,0,0,1,6.33,0l115.09,115a4.47,4.47,0,0,1,0,6.33A4.48,4.48,0,0,1-690.86,1284.37Z" transform="translate(1134.16 590.54)"/><path class="cls-2" d="M-643.38,1094.12l-20.31-20.3-6.37-6.39-41.77-41.75-6.38-6.37L-738.51,999a19.05,19.05,0,0,0-26.9,0l-7.79,7.78-6.32,6.33,122,122h0l6.33-6.32,7.77-7.79A19,19,0,0,0-643.38,1094.12Zm-6.32,20.56-7.79,7.78-109.37-109.35,7.78-7.77a10.06,10.06,0,0,1,14.23,0l75,75,20.13,20.12A10.1,10.1,0,0,1-649.7,1114.68Z" transform="translate(1134.16 590.54)"/><path class="cls-2" d="M-666.67,1022.28a38.86,38.86,0,0,0-51.54-3,37.27,37.27,0,0,0-3.35,3l-3.17,3.17,54.9,54.88,3.16-3.17a37.28,37.28,0,0,0,3-3.34A38.85,38.85,0,0,0-666.67,1022.28Zm-45.16,3.4a30,30,0,0,1,38.84,2.93,29.91,29.91,0,0,1,2.93,38.82Z" transform="translate(1134.16 590.54)"/><path class="cls-2" d="M-431.48,1367.92h-73.09a27,27,0,0,1-27.05-26.07l-7.13-194.29h52.94a2.49,2.49,0,0,1,2.49,2.5,2.49,2.49,0,0,1-2.49,2.5h-47.75l6.94,189.11a22,22,0,0,0,22.05,21.25h73.09a22,22,0,0,0,22.05-21.25l6.94-189.11h-47.75a2.5,2.5,0,0,1-2.5-2.5,2.5,2.5,0,0,1,2.5-2.5h52.94l-7.14,194.29A27,27,0,0,1-431.48,1367.92Z" transform="translate(1134.16 590.54)"/><path class="cls-2" d="M-397,1152.56h-53.24a2.5,2.5,0,0,1-2.5-2.5,2.5,2.5,0,0,1,2.5-2.5h47.45l-14-95a8.38,8.38,0,0,0-8.35-7.19H-510.9a8.48,8.48,0,0,0-8.36,7.19l-14,95h47.45a2.49,2.49,0,0,1,2.49,2.5,2.49,2.49,0,0,1-2.49,2.5H-539l14.84-100.71a13.53,13.53,0,0,1,13.31-11.46h85.75a13.34,13.34,0,0,1,13.29,11.46Z" transform="translate(1134.16 590.54)"/><path class="cls-2" d="M-468,1055.91a20.31,20.31,0,0,0-20.28,20.28v108.69A20.3,20.3,0,0,0-468,1205.15a20.29,20.29,0,0,0,20.28-20.27V1076.19A20.3,20.3,0,0,0-468,1055.91Zm15.29,129A15.31,15.31,0,0,1-468,1200.16a15.3,15.3,0,0,1-15.28-15.28V1076.19A15.3,15.3,0,0,1-468,1060.91a15.3,15.3,0,0,1,15.29,15.28Z" transform="translate(1134.16 590.54)"/><path class="cls-2" d="M-430.84,1347.44h-.33a8,8,0,0,1-7.66-8.31l6.08-149.47a8,8,0,0,1,8.32-7.67,8,8,0,0,1,7.66,8.32l-6.08,149.47A8,8,0,0,1-430.84,1347.44Z" transform="translate(1134.16 590.54)"/></g></g></svg>